<svg xmlns="http://www.w3.org/2000/svg" xmlns:xlink="http://www.w3.org/1999/xlink" width="1920" height="1080" viewBox="0 0 1920 1080">
  <defs>
    <clipPath id="clip-path">
      <rect id="Rectangle_96" data-name="Rectangle 96" width="1920" height="1080" transform="translate(0 -96.5)" fill="#fff"/>
    </clipPath>
  </defs>
  <g id="map-texture" transform="translate(0 96.5)" clip-path="url(#clip-path)">
    <g id="World_map_-_low_resolution" transform="translate(-228.248 -92.493)" opacity="0.02">
      <path id="kalimantan" d="M810.54,324.98l-5.576,20.954-30.248,10.211-9.053-10.622-4.394,1.207,8.208,31.672,12.287,1.376,16.391,6.2v6.2l7.508-1.376L816.6,375.674V363.29l6.156-12.384,6.832,1.376-8.208-17.212-1.255-11.08-9.584.99Z" transform="translate(1073.633 457.359)"/>
      <path id="papua_new_guinea" data-name="papua new guinea" d="M853.283,348.29l-.893,59,8.5-.459,11.177-13.06,9.391.459,6.035,5.407,2,16.657,19.215,10.139,4.925-1.81v-6.083L898.208,405.7l-7.6-17.574,6.035-2.921-4.466-9.68-8.932-.217L881,364.947l-23.682-15.981-4.032-.676Z" transform="translate(1202.48 491.72)"/>
      <path id="mexico" d="M137.49,225.981,149.15,262.7l-5.432,3.042.6,7.29,10.26,7.894v14.6L167.255,307.7l-5.432-35.872-7.242-23.73,1.811-16.415,6.035.6,2.414,5.48-2.414,13.977,31.382,61.413v21.9l25.347,29.789,27.761,12.77,11.467-6.687,16.295,13.374,9.656-9.729-4.225-10.96,13.881-4.249,4.225,2.438,4.225-4.249h6.639l12.07-21.292-6.035-5.48-23.537,5.48-5.432,15.812L272.265,354.5l-16.295-6.687-7.242-23.1,5.48-29.137-11.2-6.977-5.335-27.979-4.466-1.907L225.047,267l-9.366-5-3.669-18.66-37.1-3.887L155.74,225.04l-18.25.941Z" transform="translate(191.59 317.441)"/>
      <path id="estonia" d="M530.779,143.943l-13.519-.483-8.57,5.238-.121,3.887,5.552,5.238,17.261,2.921-.6-16.8Z" transform="translate(716.308 202.084)"/>
      <path id="algeria" d="M534.655,229.427l-9.849-3.307-40.99,7.7-8.932,6.783,5.456,28.172-16.295.652-9.8,15.764-23.344,5.6.072,11.467,76.887,58.782,13.108,1.11,43.718-34.158-4.369-5.5-8.208-1.11-4.925-8.256V278.963l-3.283-3.307.555-8.811-8.739-8.811-1.086-9.366,3.814-2.752-1.641-9.922-2.148-6.566Z" transform="translate(606.481 318.968)"/>
      <path id="morocco" d="M509.758,232.28H481.876L476.42,244.4l-12.577,6.059-10.38,28.1-20.229,12.118L404.82,337.483l27.882-.555,1.086-13.76h7.1V304.435h24.6l.555-24.237,23.513-5.5,9.849-15.981,15.3-.555-4.949-25.878Z" transform="translate(569.603 327.678)"/>
      <path id="mauretania" d="M404.9,301.83l5.263,6.88-1.086,29.741,7.653-5.5,5.456-1.11,7.652,2.752,8.739,12.118,8.208-5.5,39.9-.555L476.838,274l10.573-.048-19.7-15.088.024,9.8-24.937.024-.121,18.709-7.17-.024-.917,13.808-29.693.652Z" transform="translate(569.716 365.263)"/>
      <path id="senegal" d="M417.36,291.013l-9.511,6.9-2.173,3.862L405,305.642l3.5,2.511,11.684-.169,7.507-2.028.845,3.694-.676,4.876,7.17,3.524,1.5,1.69,9.511.338.338-4.2-8.691-10.429-9.68-13.108-6.011-2.511-4.635,1.183Z" transform="translate(569.857 409.056)"/>
      <path id="gambia" d="M407.074,299.839l-.314,2.68,16.705-.241.845-2.486-.362-2.511-4.8,1.955-12.07.6Z" transform="translate(572.346 419.59)"/>
      <path id="casamance" d="M406.79,300.22l2.994,7.266,1.666-4.49,20.3,2.124-8.787-4.514-16.174-.386Z" transform="translate(572.388 423.747)"/>
      <path id="bissau" d="M408.6,307.811l3.38,6.687,9.487-8.159.1-2.511-11.177-1.617-1.786,5.6Z" transform="translate(574.948 426.561)"/>
      <path id="guinee" d="M410.42,315.434l7.339,11.3,9.56-8.3,9.8-.435,8.159,10.839,6.928,4.563,2.607-5.07,2.318-1.3-.169-11.153-4.611-13.229-14.146,1.569-17.5-1.4-.1,4.49-10.187,8.135Z" transform="translate(577.521 427.169)"/>
      <path id="sierra_leone" data-name="sierra leone" d="M413.93,317.909l13.639,13.181,9.728-11.8-6.083-9.535-8.377.845-8.908,7.315Z" transform="translate(582.485 437.223)"/>
      <path id="liberia" d="M420.17,326.26l26.506,17.719-.628-13.422-8.015-9.439-7.821-6.928L420.17,326.26Z" transform="translate(591.308 443.501)"/>
      <path id="ivoire" d="M437.627,353.588l10.332-7.315,12.843-2.245,13.108,2.825-6.687-10.115-1.955-6.18,1.955-18.274-11.708.555-5.311-5.07-11.153.29-5.311.845.555,12.36-2.8,1.135-3.355,6.18,8.642,10.115.845,14.895Z" transform="translate(602.578 434.423)"/>
      <path id="mali" d="M419.46,338.091,426.9,333l41.328-.241-9.56-66.482,10.911-.314,52.795,40.29,7.1,1.014-2.68,22.4-33.193,3.018L467.982,351.8l-4.659,13.084-17.791.748-4.538-13.06-13.639.966.531-4.273-8.425-11.177Z" transform="translate(590.304 375.303)"/>
      <path id="burkina" d="M467.5,294.69l8.787-.7L490.7,314.364l-13.374,10.091-9.68-2.487-13.012.169-2.1,7.628-10.911.531-2.993-4.08,3.863-12.408L467.5,294.69Z" transform="translate(617.411 414.938)"/>
      <path id="niger" d="M468.71,348.705l6.156-.145,5.552-8.328,9.318-1.666,9.922,6.059,21.171.6,16.367-6.663,6.156-5.287.459-6.952,11.418-11.515,3.017-25.42-7.508-15.74-19.216-4.683-44.466,34.665-6.3-.6-2.7,24.068-22.692,2.269,13.35,19.336Z" transform="translate(641.068 379.559)"/>
      <path id="ghana" d="M444.34,332.109l2.7,6.349,7.049,11.056L458,349.37l10.67-6.059-.748-34.5-8.256-2.414-11.563.314-3.766,25.4Z" transform="translate(625.485 432.486)"/>
      <path id="togo" d="M455.559,342.093l6.47-3.79-.145-24.985-4.2-6.808-2.7,2.269.579,33.314Z" transform="translate(640.53 432.642)"/>
      <path id="benin" d="M461.255,343.161h5.118l.29-14.532,6.47-9.391-.29-16.343-5.866-.145-10.067,7.87,4.2,8.015.145,24.526Z" transform="translate(643.26 427.325)"/>
      <path id="nigeria" d="M461.57,348.98l9.463.459,11.418,12.722L488,363.681l4.345-2.124,6.614-.917,2.245-9.222,9-5.914,9.753-.459,17.864-32.855-.29-7.411-8.256-6.349L512.772,305.7l-22.088-.314-10.525-6.663-7.508,1.666-3.911,6.808-.29,19.216-6.3,8.932-.579,13.639Z" transform="translate(649.849 421.216)"/>
      <path id="tunisia" d="M475.193,230.483l13.35-5.383,4.393,2.849.169,3.476-2.052,2.68.314,4.756,2.052,1.111v8.546l-2.366,3.959.314,2.535,8.956,3.162L493.105,269.4l-2.825-.169-.483,9.029-3.138.483-2.68-2.366.628-9.173-8.787-8.546-1.11-7.435,4.249-3.331-3.766-17.405Z" transform="translate(668.429 317.525)"/>
      <path id="libya" d="M480.121,260.9l3.766-.628L485,251.58h1.883l7.7-12.65,19,5.528,5.19,8.063,18.685,8.546,9.728-4.1-.941-4.1-4.249-4.1.483-2.848,6.9-5.842h13.663l5.19,6.952,10.984,1.593,1.424,89.053-8.159-.314-49.295-25.637-5.335,3.018L497.6,309.661l-5.5-7.266-8.015-1.11L480,294.018l.121-33.12Z" transform="translate(675.909 337.081)"/>
      <path id="egypt" d="M521.93,244.446l6.445.169,12.553,3.476,5.963.169,7.387-6.18h3.452l6.276,3.476h7.942l1.424-.1,5.021,14.436,1.424,4.659,1.328,6.977-2.366,1.738-4.08-2.052-4.708-15.353-4.249-.314-.314,5.214,2.824,9.029,22.62,28,.483,12.022-6.59,7.6-61.9-.7-.941-72.276Z" transform="translate(735.2 341.536)"/>
      <path id="chad" d="M496.339,332.836l.314-7.121L508.1,314.585l3.066-27.327-7.628-14.581,5.335-2.728,51.66,26.916-.314,26.409-9.1,7.749V344.64l5.963,11.539H546.551l-17.429,17.236-.459,5.214-12.867-.169-.169,2.366-7.339-.966-5.021-9.487-3.766-1.859.483-2.9L504.716,362V345.051l-6.542-1.014-7.894-5.866,6.059-5.335Z" transform="translate(690.446 380.945)"/>
      <path id="south_sudan" d="M589.715,322.414l-7.1-11.935-.746-8.678-1.707.326L579.7,304.8l-9.313,13.6-7.43-3.546-7.411,6.209-15.334-.881-6.783-5.422-9.738,4.983-.367,3.319-2.969,1.789,29.741,30.607,16.2.92,2.361,3.6,23.18.41.188-5.19L594,351.6l7.73-.99L592.1,336.633H585l-1.811-9.924,5.695-2.508Z" transform="translate(732.966 425.983)"/>
      <path id="sudan" d="M602.523,270.609l-8.905,8.983-62.284-.555.674,15.86-5.936-.169-.435,28.558-9,7.751-.362,11.923,6.5,12.821,7.119,4.2-.109,1,9.7-4.97,7.4,5.914,13.613.782,7.865-6.588,6.967,3.319,7.846-11.462.661-3.8,5.977-1.137.93,10.793,5.979,10.042,14.494-31.17V313.75l10.528-12.408Z" transform="translate(727.196 381.876)"/>
      <path id="cameroon" d="M477.82,356.6l7.773,7.146-.555,11.056,42.632-.99,3.476-3.911L518.931,356.75l-1.81-4.756,7.773-14.557-5.287-9.656-4.442-2.39v-4.9l5.142-3.356.29-15.257-4.08-.459-.073,8.015-17.912,33.434-10.96.555-7.508,5.166L477.82,356.6Z" transform="translate(672.827 425.444)"/>
      <path id="eritrea" d="M557.064,309.562l-.6-14.219,9.56-11.153,2.583,1.98,4.707,15.739,22.6,16.826-4.1,5.045-16.536-14.219h-18.2Z" transform="translate(784.026 401.08)"/>
      <path id="djibouti" d="M572.286,305.118l-1.376,8.111,9.56-.145.145-11.925-3.5-2.148-4.828,6.108Z" transform="translate(804.459 422.036)"/>
      <path id="ethiopia" d="M552.644,334.667l17.574-39.107,17.453.1L603.145,309.1l-1.086,11.08h12l1.231,6.663L634.7,338.457l11.974.6-22.764,24.454-31.262,9.632h-7.749l-13.808-11.78-5.456-2.293L555.057,343.5l-6.976.1-.821-7.145,5.384-1.786Z" transform="translate(771.017 417.158)"/>
      <path id="somaliland" d="M575.74,306.115l9.849,6.711,2.921-.145,24.454-8.4,2.776,8.956-1.955,7.556-5.286,4.2-13.2-.845-18.9-11.611-.652-6.421Z" transform="translate(811.288 429.488)"/>
      <path id="soqotra" d="M599.62,301.05l5.142,5.745,6.953-4.2,2.51-.845-3.187-3.09-6.108,1.81-5.311.579Z" transform="translate(845.056 421.541)"/>
      <path id="somalia" d="M624.2,306.426l10.549-4.056,3.742,2.245-.41,9.367-9.728,27.713L575.7,398.086l-6.108-4.2-.41-23.8,7.918-9.1,16.8-5.19,24.647-26.023,6.445-5.745,1.811-8.4-2.607-9.2Z" transform="translate(802.012 426.787)"/>
      <path id="centrafrique" d="M496.565,348.8l11.249,12.167,4.442-5.745,7.073.29,1.521-5.6,6.952-4.345,14.436,9.946,8.328-8.256,32.324,1.424-29.982-30.948,4.031-2.511.555-5.456-6.807-3.211h-9.994l-16.1,15.957-.555,6.566-12.77-.41-.411,2.8-8.328-.845-7.508,14.267,1.545,3.911Z" transform="translate(697.148 432.698)"/>
      <path id="sao_tome" data-name="sao tome" d="M470.74,337.97l2.776-1.4,2.076,1.69-2.076,3.211-2.511-.99-.265-2.511Z" transform="translate(662.815 475.147)"/>
      <path id="principe" d="M473.05,333.91l4.176-.7,1.4,2.655-2.076,2.245-2.076-.29-1.424-3.911Z" transform="translate(666.082 470.396)"/>
      <path id="bioko" d="M477.49,327.834l-1.11,4.756,3.331,1.81,3.186-2.39-1.11-4.9-4.3.724Z" transform="translate(670.791 461.771)"/>
      <path id="gabon" d="M499.413,332.786l-.29,6.011-13.615-.29-8.328,16.1,19.578,21.412,4.852-4.055-.145-4.2-3.331-1.545v-2.945l7.508-4.756,6.663,5.045,7.363.145-.145-25.323-11.66-.555-.145-5.311-8.3.266Z" transform="translate(671.922 469.42)"/>
      <path id="equatorial_guinea" data-name="equatorial guinea" d="M481.075,332.69l-.145,3.355,10.96.555-.145-3.79-10.67-.121Z" transform="translate(677.224 469.661)"/>
      <path id="congo" d="M498.72,339.18l-.145,3.5,11.539.29.41,29.958-10.549-.29-6.107-4.756-4.732,2.655-.217,1.328,2.438,1.183.7,6.156-6.518,5.6,1.4,2.945,7.218-5.6h3.476l1.11,3.355,4.587,1.955L518.057,375l-.29-9.1,3.066-7.411,9.439-7,2.535-23.682-6.711.024-7.773,10.646-19.6.7Z" transform="translate(683.743 462.76)"/>
      <path id="cabinda" d="M486.55,356.228l4.2,5.456,5.432-5.142-1.593-5.335-1.352-.1-6.687,5.118Z" transform="translate(685.171 495.707)"/>
      <path id="drc" d="M489.38,400.8l24.889-.435,5.045,7.17-.193,5.287,1.859,1.69h12.36l3.549-6.977h5.045l2.052,2.076,6.928-.193,2.052,24.333,11.974.386v1.883l32.179,14.508,1.5,2.824h6.735L604.6,443.17l-12.167-5.842.748-7.725,5.238-12.263,11.974-.386-10.284-34.134.193-14.508,16.271-25.444.193-3.573-2.438-1.328.1-6.9-2.969-.265-2.993-3.814-49.125-2.221-9,8.763-14.75-9.7-5.19,3.186-3.766,31.7L517.31,365.9l-2.8,6.373.507,9.439-16.8,13.736-4.466-2.028.6,2.631L489.38,400.8Z" transform="translate(689.173 457.118)"/>
      <path id="rwanda" d="M540.182,339.9l6.783,6.252-.29,6.687-10.525.217v-7.387l4.031-5.769Z" transform="translate(755.307 479.856)"/>
      <path id="burundi" d="M536.464,346.337l10.308-.217-2.68,9.028-2.607,2.269H538.3l-2.269-6.107.434-4.973Z" transform="translate(755.137 488.651)"/>
      <path id="uganda" d="M538.3,356.412l7.314,6.856,4.587-2.921,12.408-2.028,2.125.217.8-4.707,7-14.726-5.89-12.263-19.095.121-.121,5.045,2.559,2.462-.386,5.045-11.3,16.9Z" transform="translate(758.347 461.389)"/>
      <path id="kenya" d="M552.173,331.809l6.421,12.529-7.7,16.15-1.014,4.9,38.455,23.778,11.925-18.733-6.035-4.9-.121-24.671,7.556-8.256-12.046,4.007-9.1.121-14.243-12.022-4.49-1.931-8.328.773-1.472,2.462.193,5.794Z" transform="translate(774.722 455.648)"/>
      <path id="tanzania" d="M569.433,415.17,611.606,410l-9.487-18.347-.507-17.574,3.066-8.4-40.121-25.2-12.577,2.076-4.369,3.235-.386,7.363L544.4,363.365l-2.945,3.5-4.224.386,8.087,28.027,13.2,6.2,9.1.266,1.811,13.422Z" transform="translate(756.834 480.676)"/>
      <path id="zambia" d="M514.55,415.215l7.652,10.622,11.853.724,4.2,2.317,12.408.145,10.694-14.991,29.886-13.374,2.607-11.78L590.375,372,574.78,363.12l-10.4.724-5.19,11.491.145,5.239,12.263,5.963.724,12.963-10.549.579-2.607-4.369-29.306-12.5-.869,9.608-13.856.435-.579,21.968Z" transform="translate(724.764 512.69)"/>
      <path id="angola" d="M492.028,356.95l8.232,30.731-.193,9.7-12.046,12.939-1.811,21.026,46.349.41,15.063,5.456,12.432-1.617-7.242-9.077.024-25.927,14.243-.6V389.878l-11.563-.483L553.2,365.448l-4.876.072-2.631-2.366-2.873.145-3.814,7.387H524.328l-3.4-3.428,1.014-4.852-4.007-5.866-25.9.41Z" transform="translate(684.691 503.385)"/>
      <path id="malawi" d="M547.57,397.4l7.508,7.845-.145,10.042,1.448,4.225,9.97-10.767-1.159-13.688-5.335-4.08L555.1,366.96l-8.232-.29,3.742,17.309L547.57,397.4Z" transform="translate(770.466 517.709)"/>
      <path id="mozambique" d="M545.059,474.324l6.494,5.383,15.3-9.318,2.462-13.832V433.72l24.551-20.085,4.2.145,14.87-14.267-2.318-29.4L571.2,375.083l1.159,8.884,6.783,5.238,1.593,16.005-13.277,12.963-3.187-7.266.579-9.608L557.2,393l-18.781,8.739,17.477,8.884.579,25.9-11.563,17.164.145,20.64Z" transform="translate(758.517 522.574)"/>
      <path id="zimbabwe" d="M524.914,404.729l21.654,24.454,16.608,4.224,11.129-17.453-.869-23.126L555.38,383.51l-6.783,3.066L538.481,402l-14-.145.435,2.873Z" transform="translate(738.805 541.522)"/>
      <path id="namibia" d="M511.341,469.429l8.087.579,4.755,4.8,11.274.145,2.752-32.01V421.993l7.218-1.448,2.752-21.968L566.526,398l6.494-5.383-10.984-.435-14.87,2.028-16.029-5.818H486.09l1.159,12.794L502.264,423.3l-2.607,11.346.145,5.963,11.539,28.824Z" transform="translate(684.521 548.422)"/>
      <path id="botswana" d="M508.51,440.472l5.19,1.593-.724,14.846,5.335.724,12.263-11.056,14.725,1.593,3.911-9.9,18.636-17.019L545.469,395.5l-.29-4.225-2.462-.724-6.784,6.252-17.622.435L515.849,419.2,508.92,420.8l-.41,19.674Z" transform="translate(716.223 551.476)"/>
      <path id="swaziland" d="M545.946,414l-6.059,1.014-2.607,7.121,4.635,4.224h5.625l4.756-6.832L545.946,414Z" transform="translate(756.905 584.635)"/>
      <path id="lesotho" d="M528.668,428.713l7.363-5.673,3.476.145,4.2,5.238-.435,5.239-7.073,2.607V438.3l-7.8-.435-1.883-5.673,2.149-3.476Z" transform="translate(741.69 597.418)"/>
      <path id="south_africa" data-name="south africa" d="M586.79,403.63l-19.071,17.622-4.538,10.887-15.112-1.883-12.577,11.177-8.353-.821.676-15.45-2.969-1.038-2.076,31.6-14.822-.145-4.466-5.263-6.542-.072,5.963,17.115,10.646,10.067-7.6,8.86,4.925,11.1,11.394,4.345,9.077-7.725,26,.145,1.859-2.317,11.539-2.028,39.035-38.866-.145-12.239-4.176,5.407H599.2l-7.6-6.373,3.862-9.608,6.638-1.352-.6-19.747-14.7-3.4Zm-9.149,44.659,3.645-.145,5.914,6.421L587.032,462l-6.928,3.5-.434,2.462-10.574.121-3.307-7.966,3.017-5.842,8.835-5.987Z" transform="translate(699.863 569.972)"/>
      <path id="greenland" d="M323.053,81.193l-3.283,5.238,5.914,5.914-2.631,5.914,8.546,11.153,10.5-3.283,13.784-1.3,15.764,17.067,10.5,28.22-8.522,17.719,11.8-1.98L392,169.788l.652,8.546-14.436.652,7.87,7.87,9.849,1.98-21.654,28.872-2.631,17.719,4.587,14.436-3.283,8.546,5.914,18.371,11.153,12.481,3.283-.652,7.218-1.98.652,10.5,4.587,6.566,8.522-.652,6.566-24.285,19.7-24.285,29.548-11.8,18.371-22.982,8.522,3.935H514.7l14.436-14.436,17.719-7.218,1.98-11.153-11.153-9.849-9.849-3.283L522.573,163.9l12.481-7.218,19.7,10.5,6.566-7.218-10.5-5.914,22.33-30.2-3.935-13.132-10.5-.652,3.935-11.8,13.132-5.914,26.916-23.633-7.87-8.522-30.2,2.631L548.861,78.586l9.2-20.35-10.5-2.631-5.914,10.5-8.521-7.218-23.633,2.631,6.566-10.5,38.721-1.3-9.849-13.132-42-7.87-17.067,2.631.652,8.546-17.719-5.914.652-5.914-12.481,2.631-2.631,6.566,13.132,4.587-13.784,9.849-9.849-11.153-13.784-3.935-1.979,10.5H414.279l-5.263-11.153-21.654-3.283-11.8,5.914-.652,7.87-15.088-1.98-9.2,3.935.652,9.2v4.587l-17.067,3.283-7.87-5.238-5.263,8.522,7.87,8.546,16.415-1.98,1.3,5.263L334.182,86.5l-11.129-5.311Z" transform="translate(449.34 38.905)"/>
      <path id="disko" d="M347.132,92.49l3.935,5.914-1.979,7.218h-3.935l-5.263-5.914,1.3-4.587,5.939-2.631Z" transform="translate(477.79 130.011)"/>
      <path id="milne" d="M413.175,85.69l11.153,3.283-.652,9.2-11.8-5.914-2.631-3.283,3.935-3.283Z" transform="translate(575.853 120.396)"/>
      <path id="east_antarctica" data-name="east antarctica" d="M388.52,696.406l9.246-12.336,35.945-18.491,6.156-13.35,15.4-3.09,14.388-18.491,14.387-1.038,3.09-14.388,12.336-9.246,10.284,3.09,29.789-9.246,7.194,7.194,13.35,1.038,12.336-6.156,73.966-1.038,26.7,7.194,33.893-7.194,11.3,1.038,3.09-10.284h11.3l15.4,16.44,28.775-18.491,31.841-9.246,11.3,7.194,1.038-14.388,16.439-2.052,17.454,8.208v8.208l44.177,18.491,12.336-1.038,5.142,6.156-14.387,16.44v11.3l13.349,7.194,3.09-7.194L979.233,615.2l44.177-4.1,9.246,5.142,34.931,5.142,8.208,3.09,11.3-6.156,16.439-1.038,15.4,11.3,1.038,12.336,34.931-7.194,5.142,2.052,2.052,11.3,31.841,10.284,10.284-7.194,1.038,9.246,11.3,1.038,15.4,12.336,14.388-6.156,12.336,1.038h9.246l6.156-1.038,1.038,16.44,20.543,12.336L388.52,696.406Z" transform="translate(546.554 806.737)"/>
      <path id="antarctic_peninsula" data-name="antarctic peninsula" d="M260.01,713.842l32.879-9.246,2.052-9.246,34.931-8.208,20.543,5.142,45.191-18.491-1.038-19.505-13.35-20.543,3.09-5.142-5.142-13.349V600.865h8.208l-5.142-10.284,36.983-31.841-1.038,14.388-7.194,2.052-7.194,12.336,7.194,3.09-7.194,10.284-8.208-2.052-4.1,9.246,1.038,12.336,12.336-1.038,8.208,11.3,3.09,14.388,16.439,20.543,1.038,25.685-6.156,3.09,5.142,13.349-3.09,5.142-169.513.966Z" transform="translate(364.837 789.302)"/>
      <path id="thurston" d="M261.052,616.532l12.336-2.052,5.142,4.1-2.052,5.142-1.038,6.156-7.194,3.09-5.142-6.156H242.56v-4.1l9.246-2.052,9.246-4.128Z" transform="translate(340.162 868.12)"/>
      <path id="alexander" d="M316.144,587.67l-10.284,2.052,6.156,11.3,7.194,3.09-3.09,6.156v4.1l-19.53,5.142,2.052,6.156,8.208,3.09,9.246-7.194,8.208,2.052-5.142,8.208,3.09,2.052,9.246-4.1,7.194-13.35L316.144,587.67Z" transform="translate(416.562 830.21)"/>
      <path id="smyley" d="M300.558,606.82l-8.208,7.194,7.194,2.052,9.246,2.052,9.246-6.156-9.246-2.052-8.232-3.09Z" transform="translate(410.567 857.289)"/>
      <path id="robert" d="M323.869,556.47l-6.011,1.207-1.328,6.156,11.491-1.69-4.152-5.673Z" transform="translate(444.758 786.092)"/>
      <path id="king_george" data-name="king george" d="M327.818,552.54l-7.218,1.376,1.376,5.576,8.787-.314-2.945-6.639Z" transform="translate(450.513 780.535)"/>
      <path id="james_ross" data-name="james ross" d="M328.34,557.17l.048,8.594,4.949.217,4.007-6.373-9-2.438Z" transform="translate(461.458 787.082)"/>
      <path id="elephant" d="M333.162,547.24l-5.214,2.052-1.328,4.924,4.514,1.642,7.58-5.214-5.552-3.4Z" transform="translate(459.026 773.041)"/>
      <path id="australia" d="M767.675,494.242l-.845,61.268-9.415,6.9-.845,6.035,12.843,8.618,31.7-6.035H817.38l5.987-8.642,35.969-6.9,25.685,7.773-1.714,10.356,3.428,10.356,19.7-3.452.845,5.166-12.843,9.487,4.273,3.452,9.415-3.452-2.559,28.485,17.985,13.808,10.284-3.452,5.142,5.166,29.982-4.321,28.269-45.746,10.284-2.583,20.543-37.973,5.142-32.783-12.843-16.391,5.142-3.452-10.284-31.938-11.129-7.773,1.714-43.139-10.284-7.773-2.559-24.164H987.81l-17.14,56.947-9.415.869-21.412-21.581,12-31.938-22.257-4.321-24.84,6.9-6.856,19.843-11.129,2.583-.845-13.808L840.53,424.259l.845,10.356-6.856,9.487H817.38l-36.838,15.522-12.867,34.617Z" transform="translate(1066.987 538.142)"/>
      <path id="tasmania" d="M828.243,496.26l-4.273,17.26.845,12.07,12.843-.869L852.214,502.3l-23.971-6.035Z" transform="translate(1162.293 700.953)"/>
      <path id="new_zealand_north_island" data-name="new zealand north island" d="M921.052,481.96l2.559,28.486-3.428,12.939-12.842,9.487.845,11.225v12.07l3.428,4.321,35.124-30.2v-6.9h-8.57l-12-40.556-5.118-.869Z" transform="translate(1280.18 680.733)"/>
      <path id="new_zealand_south_island" data-name="new zealand south island" d="M943.019,507.7l6.856,12.939-18.854,18.13-1.714,9.487-12.843,1.714-21.412,19.843-19.7-9.487-1.714-6.9L909.609,537.9l33.41-30.2Z" transform="translate(1232.528 717.13)"/>
      <path id="new_caledonia" data-name="new caledonia" d="M907.135,420.47l-.845,4.321,11.129,15.522,5.987,2.583.845-6.035L907.135,420.47Z" transform="translate(1278.696 593.784)"/>
      <path id="sumatra" d="M722.876,317.57l-.676,5.5,16.391,27.544h4.78l34.159,57.14,13.663,1.376,6.832-19.964-10.936-6.88-2.052-11.008L722.876,317.57Z" transform="translate(1018.387 448.281)"/>
      <path id="east_malaysia" data-name="east malaysia" d="M764.14,361.286l7.29,8.425,27.954-9.68,5.528-21.34,12.456-.893,11.394-8.256L813.99,318.774l-3.38-5.914-7.291,13.446,2.68,7.725-4.442,6.445-8.377-2.148-20.3,14.895.531,8.618-9.27-.555Z" transform="translate(1077.692 441.621)"/>
      <path id="brunei" d="M783.843,319.25l-6.952,8.425,5.7,1.786,3.211-4.49-1.955-5.721Z" transform="translate(1095.72 450.656)"/>
      <path id="sulawesi" d="M789.53,373.912l5.456,6.687-3.549,10.042v1.907H799.5l2.849-25.106,2.607.724,4.732,22.933,4.514,1.207,4.273-9.8L814.2,367.684l-3.548-6.445,11.153-8.135-2.607-3.6-10.67,6.928H805.68l-5.214-7.653,1.666-3.356,8.787-4.3,13.277,4.055,4.031-.241,9.97-9.318-4.031-4.056-9.246,7.17h-5.939l-9-4.3-6.4.241-7.122,11.467-4.514,19.843-2.414,7.918Z" transform="translate(1113.594 468.077)"/>
      <path id="maluku" d="M816.834,330.5l-4.514,10.984,7.121,9.318h2.366l3.09-6.2,1.666-2.149-3.09-3.356-4.514-1.666-2.125-6.928Z" transform="translate(1145.819 466.564)"/>
      <path id="seram" d="M827.357,345.45l-9.729,2.149-2.849,3.114,2.366,4.056,6.4-2.39,4.031-2.39,5.939,4.78,2.607-2.148-4.731-5.745-4.031-1.424Z" transform="translate(1149.298 487.704)"/>
      <path id="java" d="M757.059,358.32l-6.639,4.538,1.424,3.814,21.123,4.78,10.67,1.907,4.514,4.78,12.094.966,5.7,4.78,5.214-1.207,4.756-4.3-8.787-4.056-7.58-6.445-19.7-4.78-22.788-4.78Z" transform="translate(1058.291 505.902)"/>
      <path id="bali" d="M784.824,366.93,779.61,369.8l3.09,3.355,7.58-2.873-5.456-3.356Z" transform="translate(1099.567 518.077)"/>
      <path id="lombok" d="M785.5,366.2l.942,4.538,5.456,1.424,2.124-2.631-2.366-3.6-6.156.266Z" transform="translate(1107.895 516.663)"/>
      <path id="sumba" d="M794.8,370.99l-6.639.966,5.938,5.021h4.732L794.8,370.99Z" transform="translate(1111.656 523.818)"/>
      <path id="flores" d="M792.524,368.837,791.1,371.71l10.67,1.666,8.3-4.78-4.731-1.424-7.58,2.149-2.849-2.39-2.39,1.907Z" transform="translate(1115.814 518.077)"/>
      <path id="timor" d="M813.366,368.42,801.03,378.7l1.183,2.631,5.214-.966,6.156-5.745,12.094-1.666-2.366-4.056-9.946-.483Z" transform="translate(1129.855 520.184)"/>
      <path id="new_ireland" data-name="new ireland" d="M881.724,349l-2.124,3.018L891.212,362.3l1.593,6.035,3.162-.362.362-6.2-3.525-3.187L881.724,349Z" transform="translate(1240.955 492.724)"/>
      <path id="new_britain" data-name="new britain" d="M895.362,355.03l-2.293.531-1.4,6.2-4.394,2.849-13.2,2.318.531,4.973,13.905-.7,8.811-5.5-.531-9.584-1.424-1.086Z" transform="translate(1233.136 501.25)"/>
      <path id="bougainville" d="M889.38,359.934l2.994,8.328,5.287,5.142,1.593-1.424-.531-5.5-5.987-7.266-3.356.724Z" transform="translate(1254.785 507.161)"/>
      <path id="choiseul" d="M895.43,364.65l.362,5.5,3.355,3.186,3.162-1.955-2.824-5.866-4.056-.869Z" transform="translate(1263.339 514.853)"/>
      <path id="new_georgia" data-name="new georgia" d="M898.835,370.31l-2.825,3.018,2.993,5.5,3.525,1.062-.169-3.718-3.524-5.866Z" transform="translate(1264.16 522.857)"/>
      <path id="santa_isabel" data-name="santa isabel" d="M900.03,368.99l2.462,6.035,4.756,5.673,2.631-4.249-3.525-6.035-6.325-1.424Z" transform="translate(1269.844 520.99)"/>
      <path id="malaita" d="M905.14,372.74l1.4,7.459,3.356,4.611,2.824-5.842-7.58-6.228Z" transform="translate(1277.07 526.293)"/>
      <path id="santa_ana" data-name="santa ana" d="M907.461,379.65l-1.231,2.124,4.056,5.335,2.824.169-1.762-6.928-3.887-.7Z" transform="translate(1278.611 536.064)"/>
      <path id="rennell" d="M905.495,384.05l-4.225,1.956,3.693,5.142,3.162-1.786-2.631-5.311Z" transform="translate(1271.597 542.285)"/>
      <path id="espiritu_santo" data-name="espiritu santo" d="M922.623,397.22l-2.993,4.007,1.256,4.514,1.5,1.014,2.728-3.525-2.487-6.011Z" transform="translate(1297.559 560.908)"/>
      <path id="malakula" d="M921.49,402.607l.241,3.259,3.235,1.014,2.245-1.255-2.245-3.525-3.476.507Z" transform="translate(1300.189 567.809)"/>
      <path id="efate" d="M924.327,414.37l-1.5,2.269,2.245,2.511,3.742-1.255-4.49-3.525Z" transform="translate(1302.084 585.159)"/>
      <path id="fiji" d="M950.515,412.29l-2.993,4.007-.241,4.514,3.476,3.524-.242-12.046Z" transform="translate(1336.657 582.217)"/>
      <path id="palawan" d="M798.024,297.53l-2.076,3.959-1.159,4.876L783.25,321.019l.7,3.018,4.852-.7,14.991-16.753-5.769-9.053Z" transform="translate(1104.714 419.943)"/>
      <path id="negros" d="M797.252,295.22l-.241,12.094,4.394,4.418,1.617,8.594,4.394.941,2.076-5.359-3.452-2.559-.917-15.112-7.87-3.018Z" transform="translate(1124.171 416.677)"/>
      <path id="cebu" d="M802.421,297.15l-.241,10.694,2.535,4.176,4.394-5.118-1.159-9.294-5.528-.459Z" transform="translate(1131.481 419.406)"/>
      <path id="samar" d="M803.42,293.969l4.394,5.818,2.076,5.576h3.935l-.7-9.535-4.393-3.017-5.311,1.159Z" transform="translate(1133.235 413.269)"/>
      <path id="path7462" d="M819.262,302.35l.917,6.977-8.087,6.518-6.687.7-7.146,7.677.241,3.5,6.687-2.1L809.8,322.6l3.935,9.994,6.928,4.876,2.776-.941,2.535-3.018-5.528-5.576,3.235-2.559,3.693,3.017,2.535-4.176-2.535-5.118-.459-11.394-7.652-5.359Z" transform="translate(1125.938 426.759)"/>
      <path id="luzon" d="M795.438,272.97l-6.228,4.418-.7,13.953,9.7,18.829,3.235,2.559,4.152-2.8,7.146,1.159,1.376,6.276,5.311.459,2.535-3.476-3.235-4.418-3.935-3.718-8.3-.917-4.393-7.218,5.069-7.677.459-6.735-3.452-8.594-8.739-2.1Z" transform="translate(1112.151 385.215)"/>
      <path id="mindoro" d="M792.72,290.21l1.835,6.518,3.235,2.1,2.318-3.018-3.693-5.118-3.694-.483Z" transform="translate(1118.104 409.593)"/>
      <path id="hainan" d="M765.642,270.17l-5.77,1.617-4.152,5.118,3.452,6.735,5.069.459,5.77-5.118,1.376-6.735-5.745-2.076Z" transform="translate(1065.786 381.256)"/>
      <path id="taiwan" d="M792.734,248.31l-8.546,6.518-.459,12.553,7.387,8.594,1.835-1.617-.217-26.047Z" transform="translate(1105.392 350.345)"/>
      <path id="kyushu" d="M805.535,216.42l-3.935,3.959,1.618,5.576,3.452.241,2.318,12.094,2.776,3.018,4.853-4.418,2.076-7.918-6.011-8.594-7.146-3.959Z" transform="translate(1130.661 305.252)"/>
      <path id="shikoku" d="M816.089,213.15l-6.687,6.276-.241,7.218,1.618,2.1,9-7.677-.7-7.677-2.993-.241Z" transform="translate(1141.351 300.628)"/>
      <path id="honshu" d="M815.1,240.365,803.32,253.86l2.076,3.259,5.77.7L822,249.442l7.628-1.4,6.928,8.135,5.311-1.859,2.076-7.918,9.922-.241,9.7-11.636-5.07-19.312-2.317-10.236,5.069-4.176L849.717,183.37l-2.993.241-6.228,6.977v5.818l2.776,3.259.917,15.353-7.146,8.835-4.152-2.559-3.235,7.218-.7,6.735,2.535,3.959-1.617,3.018-5.311-4.418H820.87l-3.235,1.859-2.534.7Z" transform="translate(1133.093 258.518)"/>
      <path id="hokkaido" d="M820.078,163.44l-3.693,3.259,1.859,6.977,3.235,3.259-.241,10.694-4.152,1.617-3.235,7.218,9.463,13.012,6.228-2.1,1.159-3.259-6.687-6.035,4.152-5.359,4.394.7,3.452,3.718.241-7.677,9.463-7.677,5.311-1.4-4.394-7.435-2.076-3.259L841.1,172.01l-2.993,3.718-6.469-1.4-6.687-4.418-4.876-6.47Z" transform="translate(1147.983 230.336)"/>
      <path id="iturup" d="M834.65,160.45l-6.47,9.077.459,4.418,3.235-1.4,7.6-9.535-4.828-2.559Z" transform="translate(1168.246 226.108)"/>
      <path id="urup" d="M835.758,156.318l-2.318,6.276.242,4.176,3.935-2.559,3.694-7.435V154l-5.552,2.317Z" transform="translate(1175.684 216.988)"/>
      <path id="paramushir" d="M841.793,132.03l-2.993,3.718.241,5.818,2.776-.241,4.611-8.135-4.635-1.159Z" transform="translate(1183.263 185.922)"/>
      <path id="onekotan" d="M837.75,138.037v10.236l3.235,1.159,2.318-3.718V137.82l-5.552.217Z" transform="translate(1181.778 194.109)"/>
      <path id="sakhalin" d="M798.767,122.59l-.217,14.895,18.685,28.848,6.687,25.106,11.781,22.33,4.611,1.617,3.935-3.259,1.835-5.359L829.233,188.4l.458-9.535,3.694-1.617.917-5.576-33-46.736-2.535-2.342Z" transform="translate(1126.348 172.573)"/>
      <path id="bering_island" data-name="bering island" d="M855.271,103.42l-4.611.459,2.776,3.959,5.769,3.959,1.617-1.859-5.552-6.518Z" transform="translate(1200.034 145.466)"/>
      <path id="medny" d="M856.29,104.58l.7,3.959,7.146,2.1.7-2.8-8.546-3.259Z" transform="translate(1207.994 147.107)"/>
      <path id="attu" d="M872.54,110.87l3.018,5.407,5.021-.338,1.014-3.718-9.052-1.352Z" transform="translate(1230.972 156.001)"/>
      <path id="amchitka" d="M893.51,114.964l4.031,7.435,3.018-3.38V113.95l-7.049,1.014Z" transform="translate(1260.624 160.356)"/>
      <path id="adak" d="M911.147,104.57l-5.7,7.435,1.328,3.38,7.049-4.394.676-4.394-3.355-2.028Z" transform="translate(1277.508 147.092)"/>
      <path id="umnak" d="M922.551,94.92,917.53,101l5.359,2.028-.338-8.111Z" transform="translate(1294.589 133.447)"/>
      <path id="unalaska" d="M924.5,90.72l-3.356,5.407.338,5.407,4.683-2.028L924.5,90.72Z" transform="translate(1299.694 127.508)"/>
      <path id="st._lawrence_island" data-name="st. lawrence island" d="M885.419,38.39l-5.7,3.718-1.352,4.731,2.68,3.042,6.035-2.028,6.035,2.028,3.355,1.014-.338-11.153L885.419,38.39Z" transform="translate(1239.216 53.512)"/>
      <path id="st._lawrence_island_west" data-name="st. lawrence island west" d="M69.17,53.35l8.353,15.619,5.359-1.207V62.354l-13.712-9Z" transform="translate(94.984 74.666)"/>
      <path id="alaska" d="M903.338,41.833,893.151,60.107l19.505,12.336L934.5,54.12,947.78,76.257l-13.856,2.849L928.444,93.3l30.683,41.57,18.467,3.066,26.627,5.238,3.283-9.656,9.294,3.573,1.762,40.435-17.212,28.655,8.3,1.811,21.678-45.673,6.59-34.183-13.374-6.252L1022.4,76.016l10.308,2-.1,27.592,11.25,9.825,6.566-23.971-5.262-14.243,15.884,7.6L1062.712.36,879.825.7,869.3,8.785l1.424,16.343,32.42,4.442L928.033,23.9,919.1,40.6l-15.764,1.231Z" transform="translate(1226.391 -0.263)"/>
      <path id="chukotka" d="M1.17,132.2l33.821,3.79,5.649,11.684L67.58,131.885l45.094-6.3,3.138-23.344,22.547-8.208,14.726-13.881V99.078L168.124,119.6l31.31-19.867L184.395,82.687,165.614,31.9l-22.571-25.9L127.062,4.738l-.628,13.881-13.156,6.639-4.08-8.208L117.019.32,1.484.634,1.17,132.2Z" transform="translate(-1.17 -0.32)"/>
      <path id="wrangel-w" d="M83.991,3.32,74.6,11.842l2.824,6.3,5.021-3.476,2.824,3.162,9.366-3.452-.314-5.359L83.991,3.32Z" transform="translate(102.662 3.922)"/>
      <path id="unalaska_west" data-name="unalaska west" d="M49.9,110.26l-.41,7.266,5.214-1.207v-3.235l-4.8-2.824Z" transform="translate(67.156 155.138)"/>
      <path id="umnak_west" data-name="umnak west" d="M52.449,111.6,42.02,116.863l1.617,5.649,4.007-3.235,8.015-3.645L52.449,111.6Z" transform="translate(56.593 157.033)"/>
      <path id="another_aleutian_west" data-name="another aleutian west" d="M33.325,115.387l-7.218-1.617L24.9,117l.8,6.059,7.628-7.677Z" transform="translate(32.385 160.102)"/>
      <path id="adak_west" data-name="adak west" d="M27.486,115.934l-6.832-2.824-2.414,4.442,4.418,4.442,4.828-6.059Z" transform="translate(22.967 159.168)"/>
      <path id="amchitka_west" data-name="amchitka west" d="M16.031,114.2l-3.211-4.442L9.61,110.967v6.059l3.621,2.414,2.8-5.238Z" transform="translate(10.764 154.431)"/>
      <path id="attu_west" data-name="attu west" d="M1.47,99.71l4.007,2.824L4.27,105.769H1.47V99.71Z" transform="translate(-0.746 140.22)"/>
      <path id="kerguelen" d="M622.972,499.62l-.362,10.356,14.339,3.331,3.307-8.521-5.142,1.473-6.615,1.472-1.835-7.773-3.693-.338Z" transform="translate(877.564 705.705)"/>
      <path id="mauritius" d="M615.16,398.99l-3.669,4.8.724,5.19,7.725-6.3-4.78-3.693Z" transform="translate(861.84 563.411)"/>
      <path id="reunion" d="M610.816,402.37l-5.5.362-.362,4.8,3.67.748,5.5-2.583-3.307-3.331Z" transform="translate(852.592 568.19)"/>
      <path id="madagascar" d="M618.332,373.358l-5.142,12.215-8.811,15.546-15.426,1.11L582.339,410l1.111,23.706-9.56,11.1L575,463.691l8.087,9.246,9.56-1.11,9.56-7.049-2.2-11.1,22.04-38.142-4.418-4.8,4.418-9.246,4.78,1.472,1.473-3.693-4.418-18.878L621.3,372.61l-2.969.748Z" transform="translate(808.673 526.109)"/>
      <path id="grande_comore" data-name="grande comore" d="M577.69,371.442l1.111,3.693,4.78.748,1.835-4.8-7.725.362Z" transform="translate(814.046 523.945)"/>
      <path id="mayotte" d="M580.58,374.95l1.835,4.08h2.945l1.473-5.19-6.252,1.11Z" transform="translate(818.133 527.848)"/>
      <path id="aldabra" d="M603.213,358.34l-1.473,2.969,4.031,3.331,2.945-3.331-5.5-2.969Z" transform="translate(848.053 505.931)"/>
      <path id="praslin" d="M613.468,349.14l-4.418,2.969,3.307,5.19h4.418l-3.307-8.159Z" transform="translate(858.39 492.922)"/>
      <path id="mahe" d="M613.365,354.51l-2.945,3.331,2.2,3.331,4.031.748.362-7.049-3.645-.362Z" transform="translate(860.327 500.515)"/>
      <path id="male" d="M656.4,320.76l.724,6.3,4.031,1.472.724-5.552-5.48-2.221Z" transform="translate(925.344 452.791)"/>
      <path id="maldive" d="M658.742,326.28l-.362,7.773,2.945,1.473,2.583-5.19-5.166-4.056Z" transform="translate(928.144 460.597)"/>
      <path id="gan" d="M660.353,332.57l-2.583,2.583,2.945,2.583,3.669-2.583-4.031-2.583Z" transform="translate(927.281 469.491)"/>
      <path id="path151" d="M374.563,217.02l-3.283,3.307,5.89,3.307.652-4.611-3.259-2Z" transform="translate(522.176 306.1)"/>
      <path id="terceira" d="M382.275,216.2l-3.935,2.631,3.283,2.631,5.239-1.328-4.587-3.935Z" transform="translate(532.159 304.941)"/>
      <path id="pico" d="M382.2,220.03l-1.955,5.287,2.607,3.307,3.283-2.631L382.2,220.03Z" transform="translate(534.846 310.356)"/>
      <path id="sao_miguel" data-name="sao miguel" d="M388.324,224.4l-1.3,3.307,1.955,1.98,5.238-3.307-5.89-1.979Z" transform="translate(544.433 316.535)"/>
      <path id="madeira" d="M409.707,236.42l-2.607,3.307,2.607,3.307,3.935-1.98-3.935-4.635Z" transform="translate(572.827 333.532)"/>
      <path id="lanzarote" d="M418.095,253.73l-4.225,2.438,1.955,1.98,2.269-4.418Z" transform="translate(582.4 358.009)"/>
      <path id="gran_canaria" data-name="gran canaria" d="M412.609,253.92l-5.239,1.328,2.607,3.959h3.935l-1.3-5.287Z" transform="translate(573.208 358.278)"/>
      <path id="tenerife" d="M406.3,252.28l-3.283,3.307,4.587,3.959,2.607-5.939L406.3,252.28Z" transform="translate(567.057 355.959)"/>
      <path id="santo_antao" data-name="santo antao" d="M390.247,290.54l-4.587,2.631,3.283,2.631,3.935-1.979-2.631-3.283Z" transform="translate(542.51 410.06)"/>
      <path id="boa_vista" data-name="boa vista" d="M393.983,292.74,390.99,295.4l2.124,3.935,5.118-2.293-4.249-4.3Z" transform="translate(550.047 413.17)"/>
      <path id="santiago" d="M391.768,295.83l-3.838,2.293,4.128,5.528,3.259-1.714-3.549-6.108Z" transform="translate(545.72 417.54)"/>
      <path id="kauai" d="M10.2,248.7l-.338,5.625,4.925,3.307L17.73,255,10.2,248.7Z" transform="translate(11.118 350.897)"/>
      <path id="oahu" d="M17.977,252.13l-4.587,3.307,3.935,4.949,4.587-3.959-3.935-4.3Z" transform="translate(16.109 355.747)"/>
      <path id="kahului" d="M21.4,255.41,17.47,260.7l1.3,3.307,5.576-2.631L21.4,255.41Z" transform="translate(21.879 360.385)"/>
      <path id="hawaii" d="M23.153,259.65l-2.293,13.2,2.293,4.949,7.532-2.318,3.935-6.614-8.208-7.6-3.259-1.617Z" transform="translate(26.672 366.38)"/>
      <path id="raiatea" d="M30.135,402.878l-4.587-.338-.338,4.3,3.6,2.317,4.273-2.631-2.945-3.645Z" transform="translate(32.823 568.431)"/>
      <path id="tahiti" d="M37.616,404.6l-6.566,4.3,4.925,5.938,4.273-.99,2.293-2.969L37.616,404.6Z" transform="translate(41.081 571.344)"/>
      <path id="guadeloupe" d="M278.721,283.37l-3.621,1.5,1.279,3.211,4.249-2.776-.845-.869-1.062-1.062Z" transform="translate(386.175 399.921)"/>
      <path id="dominica" d="M280.314,284.88l-2.124,4.514,2.559,3.428,3.186-2.776-3.621-5.166Z" transform="translate(390.544 402.056)"/>
      <path id="martinique" d="M283.569,290.03,281.01,292.4l1.907,3.862,3.621-1.062-2.969-5.166Z" transform="translate(394.532 409.338)"/>
      <path id="st._lucia" data-name="st. lucia" d="M282.984,294.03l-1.714,3.645,2.776,2.993,3.621-1.931-4.683-4.707Z" transform="translate(394.899 414.994)"/>
      <path id="st._vincent" data-name="st. vincent" d="M283.809,297.85,280.84,300l2.342,4.3,3.838-2.148-3.211-4.3Z" transform="translate(394.291 420.396)"/>
      <path id="grenada" d="M282.2,301.31l-2.776,2.776,1.062,1.714h3.4l1.062-2.8-2.752-1.69Z" transform="translate(392.284 425.289)"/>
      <path id="trinidad" d="M285.365,304.78l-2.559,2.366-2.776.435v3.428l5.118,4.707,2.124-3.428,1.279-3.862-.434-3.211-2.752-.435Z" transform="translate(393.146 430.195)"/>
      <path id="puerto_rico" data-name="puerto rico" d="M277.781,282.319l-6.373-2.149-5.118,3.211,2.559,2.993,8.715,1.279.217-5.335Z" transform="translate(373.717 395.396)"/>
      <path id="haiti-dominican_border" data-name="haiti-dominican border" d="M256.116,275.38l-4.031,4.128,4.611,1.883.676,5.77-10.211.893,1.038,5.552,2.969.217,1.714-2.559,11.925.386,2.148,4.128,2.752-3.235,8.039-2.173,7.073,1.5.821-4.273-12.746-8.328-8.256-3.09-8.521-.8Z" transform="translate(346.667 388.623)"/>
      <path id="domincan_republic" data-name="domincan republic" d="M275.313,286.534l-12.77-8.353-6.035-2.052-2.028,14.484,2.124,4.08,2.776-3.211,8.087-2.149,7.025,1.5.821-4.3Z" transform="translate(357.018 389.683)"/>
      <path id="haiti" d="M256.092,275.38l8.3.869-.99,10.187-.821,5.359-9.68-.531-1.714,2.583-2.969-.217-1.062-5.576,10.211-.845-.628-5.794-4.683-1.931,4.031-4.1Z" transform="translate(346.667 388.623)"/>
      <path id="falklands_west" data-name="falklands west" d="M315.374,508.59l-6.349-.7-6.325,4.249,4.587,4.973,8.087-8.522Z" transform="translate(425.202 717.399)"/>
      <path id="falklands_east" data-name="falklands east" d="M315.307,506.86l-2.1,6.735-5.987,5.311.362,1.762,10.211-3.911,4.225-5.311-6.711-4.587Z" transform="translate(431.594 715.942)"/>
      <path id="iceland" d="M416.074,118.88l-4.732-2.68-6.373,4.031-5.48,5.069.145,2.824,7.1.893-.435,5.07-2.511,2.535.6,1.642,7.1.459v8.208l10.211,1.786,6.059,3.428,6.807.29,11.684-5.818,9.028-11.925.145-8.063-5.48-4.635-4.587-3.887-2.076,1.5-3.114,4.031-3.549-.459-3.549-3.887-4.587.435-6.663,5.528-4.007,4.321-2.221-1.931-.145-4.78,2.221-1.5-1.593-2.486Z" transform="translate(562.066 163.538)"/>
      <path id="spitsbergen" d="M506.77,56.307,502.786,52.3l-8.835,4.3H477.729L475.17,66.06l9.1,8.039,3.983-.579,5.7-9.753,4.828,3.452-3.428,6.88-1.714,10.042,3.983,6.3L506.166,76.1l11.1-13.494L513,58.89l-6.228-2.583Z" transform="translate(669.08 73.181)"/>
      <path id="nordaustlandet" d="M494.432,46.986l-7.121,6.59,4.273,6.59h7.677l3.138,4.3,9.391,4.876,10.815-6.3,7.411-6.3-2.559-5.166-7.411-4.3-5.407,4.876-3.693-4.587-2.849.29L504.4,55.893l-5.407-5.456-.579-3.718-3.983.266Z" transform="translate(686.246 65.291)"/>
      <path id="edgeoya" d="M503.145,59.07l-5.7,5.166-4.828,3.718,2.269,4.007,4.563,1.424,7.411-3.452,3.428-4.3-3.138-5.166-4.007-1.4Z" transform="translate(693.755 82.754)"/>
      <path id="prince_george" data-name="prince george" d="M556.827,38.79l4.152,1.666-2.921,5.021V52.6l-6.228,3.766h-6.639l-3.742-4.611.41-5.021,2.921-3.766H550.6l6.228-4.176Z" transform="translate(762.802 54.078)"/>
      <path id="salisbury" d="M554.36,38.11v5.021l4.152,3.355,5.818-.41,5-4.611V38.11h-4.562l-3.742,1.255L558.1,36.01l-3.742,2.1Z" transform="translate(781.057 50.147)"/>
      <path id="wilczek" d="M564.18,38.29l2.921,6.276,5.818.41,4.152-1.666-2.076-5.866-5.408-1.255-5.407,2.1Z" transform="translate(794.942 50.401)"/>
      <path id="bell" d="M579.095,34.085l-4.562-.845-4.152,4.2,2.076,3.766,1.255,5.866,5.407-4.176,1.255-4.611-1.28-4.2Z" transform="translate(803.709 46.23)"/>
      <path id="novaya_zemlya_north" data-name="novaya zemlya north" d="M614.213,51.98l-1.255,5.866-9.56,8.377-20.374,4.611L566.391,98.474l-2.921,7.966,16.633,4.2,2.487-10.042,5-15.5,12.891-6.711,10.815-8.377,7.894-3.355h4.152V55.36l-9.125-3.38Z" transform="translate(793.938 72.729)"/>
      <path id="novaya_zemlya_south" data-name="novaya zemlya south" d="M566.423,77.31l11.225,1.255,3.741,12.988,9.56,10.042-3.331,6.711H581.8l-5.407-6.276-12.046-.41-5-6.711V90.3l7.484-2.1-.411-10.887Z" transform="translate(788.113 108.546)"/>
      <path id="komsomolets" d="M649.8,20.116,644.39,16.76h-6.228l-1.255,3.766-6.639,3.766-5,1.666-.821,5.021,11.636.845L649.8,20.116Z" transform="translate(880.166 22.927)"/>
      <path id="october" d="M652.214,18.67l-2.921,6.276-5.818-.41-9.149,6.711-2.487,8.377h5.818l3.331-5.456,7.894,5.866,7.484-3.355,5.407-4.611L659.7,24.946l-2.921-5.021-4.562-1.255Z" transform="translate(890.616 25.627)"/>
      <path id="bolshevik" d="M645.28,20.58,648.2,32.312,652.764,43.2l5-8.787,9.56-2.1V26.036l-6.228-4.611L645.28,20.58Z" transform="translate(909.62 28.328)"/>
      <path id="kotelny" d="M759.9,19.036l6.494,5.456L771,22.584l1.352-7.652L762.889,8.39l-6.228,4.1L741.5,13.87V20.7l-15.981.266V32.144l18.685,13.9,4.876-3.549-1.086-9.825,11.925-2.993-2.438-4.635-4.321-4.369,6.735-1.642Z" transform="translate(1023.082 11.091)"/>
      <path id="novaya_sibir" data-name="novaya sibir" d="M746.94,14.092l4.321,8.184,16.8-1.907,4.611-6.011-1.086-5.19L766.976,7.26l-4.321,3.283L750.2,13.271l-3.259.821Z" transform="translate(1053.37 9.493)"/>
      <path id="lyakhovsky" d="M755.526,24.583l-8.4-2.173-4.852,5.19L740.1,34.7l11.37-1.086,8.667-4.369-4.611-4.659Z" transform="translate(1043.698 30.916)"/>
      <path id="wrangel" d="M847.936,5.033,840.887,2.86l-8.111,2.993-4.056,6.011,5.142,6.832L847.4,12.685l2.7-2.993-2.173-4.659Z" transform="translate(1169.01 3.272)"/>
      <path id="sri_lanka" data-name="sri lanka" d="M681.912,309.068l.6,6.566.6,4.78-3.548.6,1.786,10.742,5.335,2.993,8.28-4.78-2.366-11.322.6-4.176-7.7-7.146-3.6,1.738Z" transform="translate(958.107 433.801)"/>
      <path id="cuba" d="M220.85,270.215v3.066l12.843.241L239.752,270l.941,2.583,12.6,3.066,11.2,10.115-2.559,3.524.459,4.007,9.342,2.342,9.342-4.225,4.2-4.225-6.059-3.066L247.96,265.773,237,264.59l-16.15,5.625Z" transform="translate(309.464 373.365)"/>
      <path id="bimini" d="M241.533,259.682l-3.042-.941-.241,5.866,3.742,3.766,2.559-3.766-3.018-4.924Z" transform="translate(334.068 365.093)"/>
      <path id="andros" d="M244.58,262.93l-4.2,2.342,3.959,5.649,2.1-2.825-1.859-5.166Z" transform="translate(337.08 371.018)"/>
      <path id="inagua" d="M250.332,264.821l-4.442-.241.459,2.824,3.259,4.707,2.8-3.066-2.076-4.225Z" transform="translate(344.871 373.351)"/>
      <path id="eleuthera" d="M251.922,269.109l-7.242-3.066-1.4-7.29,2.8-1.183,2.8,5.649,2.8,2.124.241,3.766Z" transform="translate(341.181 363.439)"/>
      <path id="grand_bahama" data-name="grand bahama" d="M248.881,261.852l-3.742-.942-.7-4.707-3.959-1.4,2.559-2.583,4.659,1.641,3.5,2.124-2.317,5.866Z" transform="translate(337.221 355.874)"/>
      <path id="jamaica" d="M243.851,279.59l-8.4,2.124v2.342l4.9,2.824h5.142l3.259-3.766-4.9-3.525Z" transform="translate(330.109 394.576)"/>
      <path id="irian_jaya" data-name="irian jaya" d="M841.616,339.34l-10.066,1.135-6.47,4.732,2.68,5.407,10.959,2.028v2.028l-6.928,5.625L835.147,372l3.355.217,2.9-11.491h5.359L849,371.978l26.144,21.63.676,16.9,8.932,9.68,4.031-.217.893-59.675L874.5,349.72,860.18,359.4l-5.142,3.162-8.5-5.407-.217-17.115-4.708-.7Z" transform="translate(1163.863 479.064)"/>
      <path id="alaska-westcopy" d="M146.518,71.29l-20.254,4.8,4.176,22.813,22.04,6.011,1.183,4.8-32.758,10.211-18.467,30.61,6.542,32.42,10.718,7.194,8.353-7.8,2.39,4.8-10.139,12L80.977,217.17l-25.033,6.011-.6,9,57.792-16.8,23.826-6.614L159,181.756l24.43-16.2-12.5,21,13.712,1.811,23.247-10.211,4.176,16.8,16.077,3.6,16.681,16.2,1.183,12-2.39,2.993,2.969,11.394h4.176l.6-19.216h4.756l1.183,47.412,11.925-10.211L260.87,209.9h-12.5L234.654,192.5,301.981,78.435,235.258,26.22,160.785,40.632l-2.969,22.813,16.077,9.608L167.93,88.671,146.518,71.29Z" transform="translate(75.428 36.303)"/>
      <path id="galapagos" d="M197.473,338.18l-1.5,6.639-2.776,2.8,1.907,3.428,4.9-1.931,2.342-4.08-1.5-4.3-3.38-2.559Z" transform="translate(270.366 477.424)"/>
      <path id="banks" d="M214.7,36.54l.531,9.7L195.97,66.209,200.8,82.383l13.9-3.766,8.039-11.877,20.326-7.556L259.652,58.1,246.809,44.072l-6.421,4.852-4.828-1.617-2.68-5.938-5.89-5.939L214.7,36.54Z" transform="translate(274.283 49.327)"/>
      <path id="prince_patrick" data-name="prince patrick" d="M216.653,28.137l-4.273,7.556,20.881,7.556,7.484-11.322,3.211,7.556h5.359l10.163-11.322-12.312-3.235-4.828-3.766-6.421,6.47-19.264.507Z" transform="translate(297.487 29.148)"/>
      <path id="eglinton" d="M238.944,30.31l-16.584,7v5.383l21.412,8.087-4.828,5.383,3.211,7,13.374-5.939h11.249l5.359,8.618,9.1-9.173-2.148-8.642-7.483,2.7-1.062-10.791,3.742-6.47h-3.742l-5.89,3.766-2.68,2.148,1.617,7.556-4.273,3.235-6.421-.531-1.617-9.7L238.944,30.31Z" transform="translate(311.599 42.087)"/>
      <path id="mackenzie_king" data-name="mackenzie king" d="M239.267,23.38l-1.617,5.383,10.163,4.852,7.484-4.321-.531-3.235-15.5-2.68Z" transform="translate(333.22 32.288)"/>
      <path id="king_christian" data-name="king christian" d="M246.024,19.58l-7.484,2.7.531,3.766,16.584-1.086-.531-3.766-9.1-1.617Z" transform="translate(334.478 26.914)"/>
      <path id="ellef_ringnes" data-name="ellef ringnes" d="M258.692,23.719l-1.062,3.766-2.68,3.766v5.383l10.163-1.617,10.694,9.173h3.742V35.017L268.855,23.14l-10.163.579Z" transform="translate(357.682 31.948)"/>
      <path id="amund_ringnes" data-name="amund ringnes" d="M267.81,28.486l4.273,4.852-3.742,6.47,2.68,7,11.78-6.47V35.487L275.849,27.4l-8.039,1.086Z" transform="translate(375.867 37.972)"/>
      <path id="axel_heiberg" data-name="axel heiberg" d="M274.24,30.317l.531,8.618h14.46l3.742,3.235-.531,3.766L279.6,47.554l9.1,12.408,12.312,2.148,17.116-7.556L293.5,17.33l-7.484,4.852.531,6.47-8.57-3.235-3.742,4.9Z" transform="translate(384.959 23.733)"/>
      <path id="victoria" d="M242.645,47.96l-20.326,5.383L210.538,63.6,211.6,74.925l21.412,6.47-4.828,10.791-15.522-9.7-4.273,8.087,10.163,7-.531,11.322,15.522,4.321,18.733-1.086,3.211-5.938,13.9,15.643,9.632-3.235,1.617-10.791,6.952,4.852,1.062-10.791-8.57-5.383.531-33.965-7.484-5.939L265.12,67.369,242.645,47.96Z" transform="translate(291.845 67.044)"/>
      <path id="prince_of_wales" data-name="prince of wales" d="M255.894,63.163l-6.952-3.235L245.2,64.781l7.483,11.877.531,11.322,16.053-9.7V64.25l5.89-5.939-5.89-4.321h-9.632l-3.742,9.173Z" transform="translate(343.895 75.571)"/>
      <path id="prescott" d="M270.409,55.78,259.16,64.953l2.68,11.322h6.952L272,70.337l4.828,4.852,4.828-.531L294.5,63.867,270.409,55.78Z" transform="translate(363.635 78.102)"/>
      <path id="cornwallis" d="M264.94,48.4l-2.68,5.383L274.041,58.1l3.211-4.852L264.94,48.4Z" transform="translate(368.019 67.667)"/>
      <path id="bathurst" d="M271.463,39.91l-11.781,1.617L252.73,48l12.843.531-3.742,9.7,2.68,4.321,3.742-.531,9.1-14.557-5.89-7.556Z" transform="translate(354.543 55.661)"/>
      <path id="devon" d="M272.681,38.35,266.26,40.5l1.062,8.618,10.694,7,.531,5.383-3.211,3.235,1.617,10.791L318.162,89l11.249,3.766,11.249-9.7L327.287,72.267,314.975,75.5,297.86,73.885l-6.421-6.47-1.617-17.791L279.127,44.24l-6.445-5.89Z" transform="translate(373.675 53.456)"/>
      <path id="baffin" d="M302.309,62.226,290.528,61.14l-13.9,5.383L269.14,76.759l2.149,28.051,23.006,1.086,21.944,10.791,15.522,17.791,11.78-.531-3.211,16.705-10.694,17.791-11.78,5.383-8.57-1.617-4.273-3.766-6.421,8.618,2.68,8.618,9.1.531,11.249-5.383,9.632,24.816,24.092,15.643,16.584-21.026-13.9-22.644,8.039-9.173,11.249,18.878,20.326-17.791-3.742-8.087-13.9,4.321L370.36,139.33l9.1-15.088-18.2-19.409-10.163,7-9.632-21.026-20.326,2.7-5.359-25.347L299.195,79.487l-1.617,14.025h-9.1L289.539,81.1l12.77-18.878Z" transform="translate(377.747 85.681)"/>
      <path id="bylot" d="M295.363,65.61l-4.273,4.321,3.742,5.939L312.5,78.018,301.253,66.141l-5.89-.531Z" transform="translate(408.785 92.002)"/>
      <path id="ellesmere" d="M292.671,73.547V78.4L280.89,81.1l3.211,5.383,13.374,5.383,14.991,1.617,10.694,7.556L333.854,95.1l-7.484-7.556H336l5.89-6.47,14.46-2.148V75.7l-8.039-5.383,1.062-5.939,22.475,3.766L405.043,55.2l-12.312-3.766,3.211-4.321h25.685l4.273-4.321L373.975,24.446l-12.312-4.321-13.374,9.7L333.3,17.421l-8.039-.531-1.617,10.26-10.163-9.173L301.7,21.742l2.149,5.939,17.671,3.766-1.062,8.618L330.088,46l23.561-5.939.531,8.087-19.264,9.173-11.78-9.173-10.694,1.086L323.135,64.35l-5.359,2.7-8.039-7-5.89,3.766,5.359,10.235h9.1l-2.148,9.7-7.484-1.086-9.632-10.26-6.373,1.135Z" transform="translate(394.362 23.11)"/>
      <path id="southhampton" d="M272.359,101.85l-10.211,12.843-.628,14.146,8.932-5.142h10.839l7.653,7.073,7.025-5.794L272.359,101.85Z" transform="translate(366.972 143.246)"/>
      <path id="newfoundland" d="M332.466,171.05,306.95,195.48l2.559,5.794,31.238,11.563,4.466-7.7-2.559-12.843-10.211,1.279-5.745-6.421,9.56-9.632-3.79-6.47Z" transform="translate(431.212 241.097)"/>
      <path id="canada" d="M196.908,48.66l4.8,7.266,2.414,9.7,12.022,3.018,8.425-9.077,7.218,3.645,20.447,1.811,14.436-6.059,2.414,19.988h8.425V70.483l8.425.6,21.05,24.84L320.82,104.4,313.6,115.915l3.017,3.018,27.013,5.456.6,12.118,7.218,1.207,1.811-18.178,11.418-3.018,8.425,12.722,18.033,8.473,9.029,1.811,6.011-7.266.6-11.515L417.6,114.08l3.6,9.7-9.632,16.971,1.207,8.473,5.407-8.473,10.815-9.7.6-12.722-6.011-9.7,1.811-7.87,14.436-7.266,6.614,4.852,1.207,42.414,10.211-9.077,6.011,3.645-8.425,14.532,10.815,2.414,15.643-24.237,13.229,13.929L489.73,166.8,476.5,174.069l-12.625-6.059-22.837,4.852,2.414,7.87-6.011,9.7-18.636,4.249-21.05,16.367-18.636,24.84-2.414,7.87,12.625,4.852,4.8,12.118,17.429,17.574,27.665,12.118-6.011,27.858-.6,7.87L439.832,331l9.632-12.722,1.207-24.237,15.039-.6,7.218-13.929,1.207-21.2,19.24-37.562,24.044,8.473L530.044,246.8l-5.407,17.574,9.632,5.456,23.44-15.764,6.614,43.018,21.654,26.047.6,13.325-24.044,6.059-11.418,12.118-24.044-5.456-12.022-.6L494,364.946l12.625-3.018,15.643-3.018,3.018,3.645-4.2,13.325.6,12.118,7.218,4.852,7.218-1.81,3.621-5.456h4.8l-7.821,14.532-15.039.6-6.614,9.7h-8.425l-2.414-7.266,12.022-12.118-14.436,4.852-.652-20.592-4.152-2.414-12.625,5.456-1.207,10.308H454.316l-24.647,16.971L396.6,416.534l-3.6-4.852,16.657-24.865-9.463-9.1-6.011-11.539-12.239-9.342-13.132-1.086-23.537-16.488-170.7-28.051-2.824-11.563-15.643-14.532V273l2.414-10.911-1.207-6.059-6.011-6.059-1.207-9.7,15.643-10.911-9.632-52.095-13.229-.6L130.86,160.888,196.908,48.66Z" transform="translate(182.215 68.034)"/>
      <path id="usa" d="M176.249,158.34l-2.414,9.7-8.425-5.456h-4.2L158.8,172.9,129.32,238.944l7.821,57.55,9.632,4.852,1.811,15.764h19.843l19.24,14.532,37.876,3.645,4.2,19.385,6.011,4.249,8.425-8.473,6.614,3.017,6.011,27.858,10.211,6.663,8.425-15.764L301.3,353.442l16.826,7.87,14.436,1.207.6-9.077,30.055.6,6.011,6.663,1.207,15.136-3.6,8.473,4.2,14.532h9.028l9.028-13.929-3.6-6.663-3.6-14.532,5.407-16.367,24.647-21.2,18.636-5.456-2.414-17.574,25.854-27.882L479.885,271l-4.2-14.508,25.251-14.532V222.577l-2.414-1.207-9.029,3.018-1.207,11.877-30.006.362-23.513,15.619-36.911,12.07-5.89-7.218,16.753-25.347-8.28-7.894-5.625-10.718-11.66-9.366-12.674-1.062-23.947-16.343L176.249,158.34Z" transform="translate(180.038 223.125)"/>
      <path id="haida_gwaii" data-name="haida gwaii" d="M136.234,128.41l-4.1,7.87,1.424,5.576,2.68,1.666-.628,2.269-2.873.821.821,8.28,3.09,3.114,2.462-2.68-3.09-8.063,1.835-6.421,4.514-6.011-3.283-5.576-2.849-.845Z" transform="translate(184.011 180.803)"/>
      <path id="vancouver" d="M141.613,147.95,137.92,149.4l6.783,7.87,1.642,9.318,6.783,7.242,5.745-1.038v-9.511l-6.977-4.345L141.613,147.95Z" transform="translate(192.198 208.433)"/>
      <path id="guatemala" d="M194.88,305.632,209.2,316.109l14.436-17.936-2.462-3.718-4.925-.169v-10.5l-3.693-2.245-11.177,3.331,4.273,9.849L194.88,305.632Z" transform="translate(272.742 397.333)"/>
      <path id="honduras" d="M211.849,289.275l22.306-.845,6.614,7.87-4.128-.942-7.942.338-10.38,9.753-4.442,9.873-2.921-1.545-.024-10.815-6.421-4.3,7.339-9.391Z" transform="translate(286.359 407.076)"/>
      <path id="el_salvador" data-name="el salvador" d="M201.65,300.286,213,305.935l-.169-8.956-5.818-3.549-5.359,6.856Z" transform="translate(282.315 414.146)"/>
      <path id="nicaragua" d="M230.028,292.11l5.287,1.062.169,10.839-6.156,17.574-16.584-1.641-3.693-8.473,4.925-10.284,9.342-8.69,6.711-.386Z" transform="translate(292.778 412.279)"/>
      <path id="costa_rica" data-name="costa rica" d="M226.769,305.715l3.356,6.566,2.728,3.621-3.669,10.887-7-4.925L210.74,311.388V304.46l16.029,1.255Z" transform="translate(295.168 429.743)"/>
      <path id="panama" d="M222.655,312.212,219.13,323.22l11.636,3.018,7.218,1.424,1.231-8.522,7.749-3.911,6.88,3.549,2.7,4.321,3.283-.386,2.583-7.846-8.594-3.549L247.3,307.77l-6.518,4.442-7.749,3.911-7.918-3.187-2.462-.724Z" transform="translate(307.032 434.423)"/>
      <path id="colombia" d="M286.111,300.077l-4.973-.507-32.879,27.11-3.476,9.535-4.49.507,2,21.074L230.83,385.92l12.456,10.549,15.957,1.014L270.2,413.56l15.933.507-.507,12.046h5.963l6.47-22.088-5.987-7.532,1.5-14.05,12.456-1.014-1.5-32.638-27.906-9.028-6.47-17.574,15.957-22.113Z" transform="translate(323.576 422.828)"/>
      <path id="venezuela" d="M253.543,312.566l1.062,6.252,7.846,2.486,1.786-11.515,8.28-8.57,8.28,9.7,19.047,5.19,16.126-3.38,10.984,13.543,8.28,5.19L326.157,345.3l3.042,10.477-5.19,6.421-5.383,4.514-11.66-5.866-2.68,2.7V371.9l8.521,4.056-6.276,6.783-6.276,6.783-8.28-.676-8.328-9.149-1.762-34.424-28.437-9.7-5.166-15.136,5.263-7.87Z" transform="translate(348.251 425.161)"/>
      <path id="guyana" d="M290.042,314.13l17.429,15.788-6.928,8.015-.555,4.756,9.1,9.391-.217,9.029-15.836,6.035-9.487-12.819,2.028-15.4-4.056-11.467,8.521-13.326Z" transform="translate(395.253 443.416)"/>
      <path id="suriname" d="M297.188,321.267l4.925,4.514,7.628-4.731,6.952.217-.893,2.7-2.921,6.083-.459,15.136-13.881,5.649.676-9.7-8.956-8.352.459-4.3,6.47-7.218Z" transform="translate(407.612 453.202)"/>
      <path id="guyane" d="M304.35,321.8l14.122,8.811-7.387,14.677-2.679,3.38-7.846-4.514.217-15.812,3.573-6.542Z" transform="translate(422.176 454.262)"/>
      <path id="ecuador" d="M238.712,335.85l-11.418,7.1-.821,10.525-2.293,3.452,7.194,6.9-3.114,3.4.724,8.691,12.867,3.066,19.481-23.054-.048-8.039-9.342-.6L238.712,335.85Z" transform="translate(314.173 474.129)"/>
      <path id="peru" d="M227.773,361.667,223.09,366.4l.314,7.556L264.3,448.5l42.463,27.375,6.566-11.008,1.569-24.213-3.428-15.088L299.9,406.06l-6.88,2.2-3.114,3.452L276.174,395.97l3.428-18.564,15.933-10.38-1.255-9.753-16.222-.628L269.633,342.5l-4.683-1.569.314,8.5-20.906,24.841L228.739,370.5l-.966-8.835Z" transform="translate(312.631 481.312)"/>
      <path id="bolivia" d="M258.71,377.866l19.867-8.666,6.566.628,4.37,18.25,30.272,10.066,5,15.426,12.481,1.569,5.311,13.2-3.742,11.949-20.3,1.569-7.484,19.192-15.933-.314-5-.942-9.2,8.932-4.538-.434L260.762,432.11l4.321-6.47,1.521-25.589-3.862-15.232-4.032-6.953Z" transform="translate(362.999 521.287)"/>
      <path id="paraguay" d="M306.565,399.51l5.311,5.794-.628,12.263,15.3-.942,11.563,14.8-.942,13.2-7.484,11.322-15.305.628-.628-6.3,4.369-10.38-14.991-9.439H290.656l-9.366-10.067,6.808-19.457,18.467-1.424Z" transform="translate(394.928 564.146)"/>
      <path id="uruguay" d="M303.259,431.93l-4.949,5.287,2.052,28.437,15.546,4.514,19.771-19.819-32.42-18.419Z" transform="translate(418.995 609.989)"/>
      <path id="argentina" d="M365.312,433l4.683,4.393L352.2,463.832l-6.252,6.928,2.173,30.2,13.736,16.681-11.539,20.133-8.739,3.766h-9.994l2.8,15.715-15.619,5.359,3.742,13.2L313.145,605.7l11.563,9.439-6.252,15.4-10.622,16.681,5.625,11.636-13.736,2.2-11.249-13.832-1.883-43.09-17.478-73.193,5.287-25.589-11.249-32.71,7.483-42.463,6.88-8.184-1.69-6.2,8.835-8.063,19.7,1.352,11.008,11.756,12.722.217,13.036,7.966L337.285,438l.917,9.077,18.467-.869,8.642-13.2Z" transform="translate(369.277 575.769)"/>
      <path id="tierra_del_fuego_chile" data-name="tierra del fuego chile" d="M291.078,514.1,280.77,536.744l17.791,1.883.314-15.088-7.8-9.439Z" transform="translate(394.193 726.18)"/>
      <path id="tierra_del_fuego_argentina" data-name="tierra del fuego argentina" d="M288.92,518.79l.628,13.832,10.622-.941,9.053-5.987-15.3-3.138-5-3.766Z" transform="translate(405.717 732.811)"/>
      <path id="chile" d="M319.478,677.265l-7.749,8.57-.941,10.066L295.8,687.4l-15.933-22.958-4.683-8.183,6.566-8.5-.628-10.694-7.484-3.138L267.7,629.54l1.255-5.987,7.8-2.2,1.569-34.593-12.167-6.928L258.21,399.773l2.052-3.573,15.546,35.848,4.973.1,1.617,5.721-6.614,8.015-7.6,43.139,10.815,33.217-5,25.154,17.623,73.966,1.859,43.259,12.625,14.6,13.374-1.955Z" transform="translate(362.292 559.466)"/>
      <path id="chiloe" d="M264.1,475.14l-3.114,4.708,1.569,8.184,3.114.314,1.569-10.38L264.1,475.14Z" transform="translate(366.223 671.089)"/>
      <path id="brazil" d="M410.818,599.7l15.088-29.017.555-24.382,28.148-18.153h15.764l12.384-20.978L485,466.9l-5.069-10.767,29.837-27.23,1.135-30.055-40.532-19.843-48.956-15.3-23.078-2.269,6.2-13.036-1.69-19.843-5.045-1.666-7.459,14.822-3.911,4.9-10.042-4.442-33.772,11.9L331.372,339.9l1.81-14.8-10.622,10.815-11.732-6.325-1.183,1.666.024,5.142,10.115,5.432L304.6,357.834l-9.584-.1-9.7-9.873-10.984.338-1.352,11.732,6.3,7.653-7.435,23.826-8.691.676-13.832,8.739-3.38,17.164,12,12.843,2.2-2.487,8.425-2.269,7.194,12.118,20.592-8.835,7.99.459,5.5,19.481,29.379,9.318,5.069,15.546,12.5,1.5,5.963,14.846-4.031,13.2,5.263,6.9-.773,10.284,14.1-1.328,12.915,16.319-1.014,11.467,7.652,6.47-18.347,27.785,32.3,18.081Z" transform="translate(344.942 458.928)"/>
      <path id="belize" d="M204.631,284.79l-.121,8.811h2.028l6.9-12.891h-4.683l-4.128,4.08Z" transform="translate(286.359 396.16)"/>
      <path id="russia" d="M1245.346,153.827,1249.6,168.5l8.5,2.438,8.5-13.446-4.853-9.173,1.811-7.942h12.746l-3.042,6.107,1.207,22.016-18.2,45.239,1.811,9.777-.6,16.512,33.965,49.512,6.663,1.835.6-40.338,6.663-6.107-7.291-15.884,6.059-6.735-13.35-17.719-7.29.6-2.414-29.33,18.805-4.9,1.207-8.57,9.7-2.438,5.456,4.9,6.662-26.892,11.515-19.554,9.1-4.9,7.894.6v-9.173l-12.746-2.438-17.6-14.677,8.5-9.777-7.29-16.512,6.059-6.107,7.29,9.777,18.2,6.735,20.012,1.835,2.438-8.546-10.308-10.38,11.515-15.884-26.1-9.173-6.663,13.446-8.5-11.008L1288.316,15.72l-45.5,7.942-6.663,3.669V31l9.7,4.9-1.207,11.611-17.6-7.339-38.818,15.281-6.663-14.05h-26.7l-12.143,12.843-43.066-9.777-39.421,7.942-4.852,12.215,6.059,1.835-.6,9.173-38.214,4.273,2.438,12.215-35.2-6.107,8.5-15.884-35.8-1.835,3.042,16.512-11.515,5.5-9.7-9.173-39.421,6.735-15.16,14.05-.6,8.546-9.7.6-1.207-9.777,30.948-26.892V56.058l-20.012-5.5-26.1,8.546L852.222,48.092H847.37L841.31,60.307l4.852,5.5-34.593,18.95-29.717,22.619-18.2,25.058v10.38l19.409,7.942-9.7,7.339-20.616-7.339-8.5,7.339L731.5,143.422l-2.438,5.5,13.953,44.008,3.645,1.231,9.7-4.9,4.852,3.669v7.942l-9.1-3.669-5.456,4.273,3.645,7.942-3.042,20.785-18.805,1.835-1.207-6.735,10.911-6.735,2.438-18.347L728.454,184.34l-4.249-27.5L704.8,153.778l-1.811,9.777,3.645,4.9-7.894,6.735,3.042,18.347,11.515,4.9,2.438,13.446-11.539-7.339-29.717-5.5-3.645,9.777-23.657,8.546-3.645-6.108-30.948,17.115-.6,11.611-12.143,1.835,3.645-8.546v-8.546l-12.143-4.273-7.894,3.066,6.663,12.843,4.852,8.546v6.735l-9.1-1.835-1.81-1.835-9.1,9.777L579.8,266.3l-20.616-.6,6.663,8.57-1.81,3.669H553.123l-7.894-5.5-1.81-15.281-12.746-4.9v-6.107l26.7,5.5,14.557,1.231,6.059-9.173-5.456-9.777-38.818-15.281-13.4,3.331-4.587,3.935,1.424,9.053,5.7.99-1.328,14.243,17.574,41.28-12.7,20.133-.869,4.538,6.445,4.538-5.818,3.838-3.862.072.724,17.743,5.335,7.556.072,7.339,6.832.628,10.453,3.983,11.056,15.208.121,4.007-3.6,6.156,8.256-.459,8.039,2.318,10.863,15.377,26.748,2.438-1.159,18.3-9.222,7.894,1.907,3.09-9.1,9.777-2.414,9.173,5.456,7.942,17.6,6.107,7.29-4.273,46.712,17.719,1.81-4.9-9.7-9.173V456.932l-6.059-1.835,1.207-9.777,9.7-11.611-17.405-13.036,1.207-18.129L663.638,390.3l21.847,1.231,3.645,6.735,22.45,1.231,16.391-9.173-8.5-9.173,1.81-17.115,42.463-20.785,32.662,14.726,10.912-9.777,32.155,30.562,24.261-2.438,8.5,8.546,23.054,2.438,15.16-20.785,19.409,8.57,10.308,1.835,10.308-9.173-9.1-6.108,7.894-12.215,22.45,7.339,4.852,9.777,9.7.6,6.059-4.273,16.391-.6,1.81,4.273,18.805,1.231,12.746-13.446,26.1,3.066,7.894-3.066,2.414-14.677-7.894-17.719,7.894-6.735h24.865l23.657,28.123,30.32,17.115h9.1l1.207-7.339,10.912-6.735,1.207,39.735-9.7.6v9.777l5.456,6.735-1.014,8.739,4.031,1.666,2.438-6.107,3.645,1.231,2.414,2.438,10.911-2.438,10.912-31.793,1.207-39.735L1196.1,305.428l-17.6-21.388-8.5,1.231v6.735l-20.616-7.942,7.894-17.115,6.663-45.239,27.906-8.546,13.349-8.546h14.557l-3.646,4.9,3.645,6.107L1232.5,202.18l7.29.6-1.207-7.942-11.539-2.438,7.894-28.727,10.4-9.849Z" transform="translate(726.432 21.456)"/>
      <path id="china" d="M706.217,211.642l-8.353,21-11.515-.6-12.143,26.578,10.308,13.132-21.243,29.33-10.912-1.835-7.29,9.173,1.81,5.5,8.5.6,4.249,9.777,8.5,1.835,26.1,33.627v17.115l12.746,7.942,13.953-2.438,17.6,10.38,21.243,6.108,10.308-1.231,11.539-1.231,24.261-15.884,7.894,1.231,3.018,7.17,6.687,2,9.1,13.446-6.059,13.446L830.154,427l10.308,3.669,1.811,11.008,12.143,1.231,1.811-5.5,17.6-9.173,10.911.6,12.746,14.05,8.5-3.669,5.456.6,2.438,6.735,4.249.6,6.059-8.546,24.261-9.173,21.847-26.289,7.29-25.058-.6-16.512-9.1-1.835,5.456-6.107-1.207-9.777-23.054-23.223V309.025l6.663-8.546,6.663-3.066.6-6.735H946l-3.042,9.173-7.894-1.835-9.7-10.38,6.059-15.884,8.5-9.173,7.894.6-1.207,14.05,4.249,3.669,10.308-10.38,3.645-.6-1.207-7.942,9.7-11.611,7.29.6,4.249-13.446,4.973-2.631.507-8.377-4.828-5.069-.411-13.229,9.294-.6-.6-34.11-6.518,3.911-2.438,8.739-10.887-.024-31.551-17.743-22.788-27.472-23.126-.241-5.89,5.118,7.483,17.14L895.454,179l-9.318,3.862-5.238-.41-.386,15.908,5.456,1.231,9.7-4.273,12.746,6.107v6.107l-9.1.6-7.291,15.884-6.663.6L861.706,255.8,836.841,266.8l-16.995,1.231-11.515-7.942-16.391,8.57-17.6-5.5-4.249-11.611-29.717-1.835-15.764-25.661H717.95l-5.359-11.9Z" transform="translate(909.323 198.139)"/>
      <path id="mongolia" d="M673.8,191.578l14.05-18.636,16.874,7.8,11.467,3.066,14.05-12.891L720.7,163.89l6.277-8.86,18.733,6.614,6.494,10.646,11.732.314,6.132-4.563,12.625-.507,2.752,4.683,20.978,1.062L819.7,159.737l18.371,1.931-1.062,18.443,8.039,1.835,9.873-4.49,10.453,5.166-.241,2.607-7.58.217-7.894,16.56-6.132.6L819.68,233.776l-24.358,10.742L780.09,245.7l-12.649-8.159-16.174,8.642-15.932-4.949-4.514-11.563-30.175-2.124-15.45-26.192-7.508-.483-3.887-9.294Z" transform="translate(949.948 218.444)"/>
      <path id="north_korea" data-name="north korea" d="M778.888,213.7l4.442,1.859,1.352,15.546,8.811.507,8.3-9.729-2.873-2.559.338-10.429,7.628-9.222-3.887-7,2.535-2.9,1.4-7.242-4.418-2-3.766,1.907L794.1,196.583l-7.532-.652-8.715,10.284,1.038,7.484Z" transform="translate(1097.078 254.502)"/>
      <path id="south_korea" data-name="south korea" d="M792.907,198.2l14.919,12.167,2.535,11.78-.507,6.325-7.29,8.208-6.276.338-7.121-15.377-2.7-7.339,2.873-2.221-.676-3.066-3.549-1.593,7.8-9.222Z" transform="translate(1107.344 279.488)"/>
      <path id="kazakhstan" d="M586.461,239.85l9.9-4.225,11.056-.386.772,16.9h-6.47l-4.949,8.063,6.47,10.742,9.536,5.383.869,6.156,3.5-1.159,3.235-3.838,5.335,1.159,2.68,5.383h6.856v-6.9l-4.2-12.287-1.907-9.97,12.191-5.383,16.391,2.68,10.284,10.356,23.247-2.293,12.963,18.419,15.232.773,4.2-6.9,5.335-1.159.772-7.677,7.99-.386,4.2,5,4.2-9.97,36.186,5,6.083-8.063-10.284-12.674,13.712-29.934,11.056.772L810.531,195,795.3,193.453,786.536,185,762.4,187.8,731.3,157.749l-10.96,9.729L687.1,152.39l-40.773,19.964-1.134,14.194,9.536,11.129-18.588,10.5-24.116-.531-5.045-7.411-18.9-1.038-17.912,11.515-.386,15.739,16.681,13.4Z" transform="translate(802.861 214.711)"/>
      <path id="turkmenistan" d="M600.6,213.741l-1.5,6.349H589.08v8.594l10.767,7.1-3.331,9.728V250l4.466.748,5.938-7.846,13.374-2.993,28.582,10.839.362,7.846,15.957,1.5,17.816-18.709-2.221-5.987-11.877-2.607-33.41-21.7-1.5-7.846H621.38L615.8,213.717h-5.576l-9.632.024Z" transform="translate(830.152 286.615)"/>
      <path id="uzbekistan" d="M676.756,255.372l7.435.386V243.037l-7.049-4.1,11.877-14.967h4.828l4.828,5.625,12.625-4.852-17.453-5.987-.676-3.621-4.152,1.014-4.08,7.1-17.6-.579-12.915-18.274-22.692,2.245L620.92,195.915l-14.967-2.535L595.09,197.8l6.3,20.954.073,7.049,4.587.1,5.625-10.718,14.967.193,2.221,8.232L660.945,244.9l12.408,2.849,3.4,7.628Z" transform="translate(838.65 272.672)"/>
      <path id="tajikistan" d="M630.19,219.052l9.922-12.312h3.742l1.3,2.752-4.587,3.331v2.752l3.017,2.173,14.508.869,4.732-2.028,2.149.435,1.448,4.635,8.618.869,4.321,9.125-1.3,2.752-1.714.145-1.714-3.476-3.742-.29-6.47.869-.434,6.083-6.47-.435.29-7.677-4.732-4.635-7.194,5.939.145,3.911-6.325,2.173h-3.742l.29-13.47-6.059-4.49Z" transform="translate(888.282 291.564)"/>
      <path id="kirgizstan" d="M638.959,202.222l-.748,6.107.6,3.766,21,7.049-18.443,7.435-2.1-1.738L635.29,227.4l.193,1.4,2.125.966,12.939.338,6.566-1.979,8.425-10.622,10.549,1.835,12.722-17.622-34.038-4.635L650.064,208.5l-5.939-6.373-5.166.1Z" transform="translate(895.494 277.904)"/>
      <path id="afghanistan" d="M614.12,243.778l3.838,30.079,9.56,2.1.893,5.407-6.856,5.721,12.77,10.308,24.816-8.932,1.98-10.573,15.619-9.753,5.987-22.6,4.466-4.8-4.635-8.063,15.112-9.342-1.931-2.7-6.977.435-.628,6.421-9.366-.1-.169-8.57-3.018-3.6-5.069,4.611.145,4.225-7.652,2.9-14.122-.893-18.347,19.216-16.415-1.5Z" transform="translate(865.559 303.555)"/>
      <path id="pakistan" d="M625.053,295.555l6.276,9.318-.6,4.8-8.352,3.307-.6,7.821h9.56l3.283-2.7h18.2l16.416,14.436,2.1-6.928h12.239l.29-8.715L671.33,304.874l2.679-6.614,12.843-.893,17.309-36.09-9.56-7.508-3.573-12.625,23.271-2.1L700.564,219.49l-7.315-1.979-2.993,3.621-2.245.169-13.736,8.715,4.49,7.532-5.069,5.407L667.419,266.1,651.9,276.026l-2.1,10.839-24.743,8.69Z" transform="translate(876.376 306.793)"/>
      <path id="india" d="M711.506,434.447l11.056-5.407,6.566-23.754-.29-29.161,37.61-40.6v-9.632l7.749-3.018-.29-11.129L765.556,295.5l4.78-8.715,10.453,9.632,13.422.6v5.407l-4.176,4.514.893,2.414,7.169.29,1.5,8.111h2.1l5.383-9.632,2.679-25.251,8.956-6.325.29-8.715L815.43,260.9l-5.673-.29L787.548,275.29l1.4,9.439-15.595-.048-5.5-6.735-2.994.386,1.014,9.366-33.724-2.414-20.905-9.318L710.13,264.5,696.2,255.857l-.169-17.791-9.56-10.936-21.968,2.1,2.39,9.56,10.767,8.715L659.049,285.6l-12.456.942-2.052,4.587L656.8,302.472l-.6,11.467-12.529-.193-1.352,5.7,10.4-.459.29,4.514-7.459,3.911,4.779,9.029,9.246,3.018,5.673-4.2,2.679-7.508,3.283-1.5,3.887,3.911-1.183,9.632-2.68,4.514.6,7.821,39.663,82.318Z" transform="translate(905.435 320.396)"/>
      <path id="nepal" d="M671.19,243.96l1.11,10.308,19.505,8.835,31.262,2.317-1.183-7.556L701,252.119,683.284,241.57l-12.094,2.39Z" transform="translate(946.258 340.814)"/>
      <path id="bhutan" d="M695.4,249.126l3.742,5.118,12.65.1-1.28-7L695.4,249.126Z" transform="translate(980.491 348.973)"/>
      <path id="bangladesh" d="M697.422,253.11l-3.162,5.721,8.208,15.595.241,12.167,1.5,3.259,9.632.169,5.456-5.239,3.959,2.39.8,7.411,3.162-1.98.193-9.463-2.655-.314-1.666-8.039-6.711-.241-1.666-4.466,4.1-5.48.072-2.7H706.958l-9.536-8.787Z" transform="translate(978.879 357.132)"/>
      <path id="burma" d="M761.228,387.445l-6.687-10.718,4.852-6.808-4.587-8.425-4.321-.821-.821-14.146L743.195,334l-1.883,2.993-4.321,7.339-5.407.821-2.7-3.549-1.352-9.536-4.056-7.628L706.96,308.869l4.056-2.68.748-11.274,6.035-10.139,2.607-25.227,8.739-5.963.29-9.2,5.238,1.738,8.256,11.949L736.8,271.21l4.128,10.308,10.211,4.007L753,296.75l13.712,2.124-3.79,6.542-17.284,6.808-1.883,11.153,12.7,16.319.531,8.715L754.01,351.4l.266,2.728,9.463,13.881L764,382.424l-2.776,5.021Z" transform="translate(996.837 344.802)"/>
      <path id="thailand" d="M739.886,270.47l7.821,10.067v12.239l2.7,1.352,12.432-5.987,2.438.821,14.846,17.14-.531,11.708-4.852-.821-4.321-2.728-3.235.266-5.673,9.511L762.6,329.2l4.587,2.438-.266,5.721L763.688,339l-11.081-7.628v-6.808l-4.587-.265-1.883,2.993-.966,30.465,7.17,13.084,12.7,12.239-.531,3.549-6.759-.266-6.2-9.246h-6.494l-8.111-6.542-2.438-6.808,3.5-5.721,1.207-5.166,3.814-6.759-.169-15.546-9.318-13.47-.386-1.641,3.018-3.042-.7-10.694L723.06,286.016l1.448-9.053,15.377-6.494Z" transform="translate(1019.603 381.68)"/>
      <path id="malaysia" d="M732.71,315.521l4.852,10.887,1.086,14.146,6.494,10.067,15.667,9.511,5.939.555-1.086-9.8-5.142-12.5-7.532-16.005-.628,2.8-9.077-.41-6.518-9.367-4.055.121Z" transform="translate(1033.249 445.212)"/>
      <path id="cambodia" d="M741.47,313.851l9.874,10.549,18.371-13.615,1.617-21.485-9.487,6.542-4.925-2.752-6.687-.893-3.742-2.631-1.81.1-4.9,8.039.8,3.718,4.973,2.776-.6,7.556-3.476,2.1Z" transform="translate(1043.246 408.306)"/>
      <path id="laos" d="M741.734,262.93l-5.842,2.969-4.852,14.146,8.111,10.332L737.8,301.8l1.352.555,13.494-6.542,18.105,20.23-.434,12.746,3.935,2.124,9.729-7.894-.8-6.252-28.075-26.675.265-4.08,3.5-2.438-2.438-6.808-11.612-1.907-3.09-11.925Z" transform="translate(1030.887 371.018)"/>
      <path id="vietnam" d="M757.589,366.5l2.873,4.514.531,5.166,7.556.821,9.173-12.239,8.642-2.438,4.587-12.5L788.8,329.684l-8.908-12.239-9.391-7.508-11.949-20.519,8.57-14.339L754.86,261l-9.825-.434-8.835,4.756,2.631,11.37,11.781,2.076,3.162,8.763-4.152,2.7.265,2.173,27.641,27.037,1.086,7.942L776.949,352.5l-19.36,14Z" transform="translate(1038.184 367.681)"/>
      <path id="georgia" d="M555.46,206.267l7.894,10.308,9.849,4.538,6.059-.024,10.4-2.824,2.607-4.08L561.5,202.67l-6.035,3.6Z" transform="translate(782.612 285.809)"/>
      <path id="armenia" d="M575.7,209.89,587.289,225l-3.4,3.983-8.208-1.424-10.187-9.125.555-5.987,9.656-2.559Z" transform="translate(796.795 296.018)"/>
      <path id="azerbaijan" d="M572.838,207.72l-2.438,4.152,11.37,14.919,3.959-1.279,6.518,6.832,2.824-11.974,7.073,1.135-.29-3.428-11.636-10.187L588,213.876l-15.16-6.156Z" transform="translate(803.738 292.95)"/>
      <path id="iran" d="M571.375,220.736,568.43,223.8l.29,4.852,3.669,5.142L585.4,248.038l-1.98,5.7h-2.269l-1.135,5.7,7.363,9.415,6.783.579,13.591,18.805,7.628.579,5.939,4.273.29,8.546L645.1,315.317h8.763l5.383-4.562,6.784-.29,3.959,9.125,25.372,3.525.748-9.318,8.4-3.042.386-3.331-6.687-9.125-14.895-11.974,7.821-7.121-.555-3.138-9.8-1.521-4.152-33.072-.483-7.6L649.565,223.7l-11.781,2.655-6.59,8.087-5.842-.386-1.69,1.424-13.012-.845-16.415-11.974-6.108-6.687-2.8.676-5.045,5.77-8.908-1.69Z" transform="translate(800.952 304.629)"/>
      <path id="turkey" d="M614.54,210.533l-5.383,5.7-19.8-.579-11.877-7.121-11.587-.29-13.3,9.415-12.456.579-1.135,7.121H524.859L519.21,230.5v2.849l3.4,2.848v3.138l-1.424,3.718,1.424,3.138,4.538-2.269,4.538,4.852-1.135,3.428-1.69,2.293,2.535,2.849,12.456,2.559,8.763-3.718v-5.407l4.249.845,10.187,5.987,11.032-1.714,4.8-4.562,3.114,1.135v5.142h4.249l3.669-7.121,32.251-3.428,14.074-1.714-3.717-4.876-.073-6.59,2.824-3.38L629,222.241l.555-7.121h-5.649l-9.366-4.587Z" transform="translate(731.354 293.685)"/>
      <path id="yemen" d="M571.99,300.655l3.476,10.332v10.091l8.353,7.58,58.854-23.971.555-6.59-9.439-16.946-23.682,7.556L596.517,302.08l-15.764-9.318-8.763,7.894Z" transform="translate(805.986 396.782)"/>
      <path id="oman" d="M598.38,307.65l17.84-10.284,3.162-15.088-3.911-2.245,1.617-16.174,3.4-1.979,3.645,5.721,21.7,11.346v6.3l-26.289,38.7-12.094.41L598.38,307.65Z" transform="translate(843.302 369.533)"/>
      <path id="emirates" d="M594.01,274.046l2.1,8.4,23.8,2.1,1.666-17.236,4.587-2.511,1.255-6.3-7.508,2.1-8.353,12.625-17.55.821Z" transform="translate(837.123 364.754)"/>
      <path id="qatar" d="M593.365,260.25l-1.255,9.68,3.717,2.824,3.38-.314,1.255-12.191-2.921-2.1-4.176,2.1Z" transform="translate(834.436 364.259)"/>
      <path id="kuwait" d="M588.677,248.9l-5.432-2.945-3.766,3.79.41,7.58,8.763,3.356.024-11.78Z" transform="translate(816.577 347.008)"/>
      <path id="saudi" d="M637.068,269.926l16.922,23.585,5.456,4.345,2.438,10.573,26.047,2.052,2.945,1.545-2.921,13.036-17.116,10.091-25.033,7.58-13.35,13.036-15.86-9.246-9.608,8.4-13.373-21.847-9.173-4.2-3.331-5.045V312.9l-33.386-40.363-1.255-7.146h9.608L567.762,255.3l.41-5.045-3.332-3.355,6.687-5.456,14.194.845,24.213,20.181,14.291-.652.917,3.524,11.925,4.587Z" transform="translate(769.9 340.631)"/>
      <path id="syria" d="M547.165,234.913l-.845,6.132,6.808,2.849-.29,16.995,6.808-.145,6.807-5.142,2.559-.435,15.45-12.287,3.114-17.84L556.7,228.178l-3.259,7.146-6.277-.41Z" transform="translate(769.688 317.441)"/>
      <path id="iraq" d="M575.651,226.147l-3.766,18.612L556.29,257.747l.99,6.132,15.233,1.038,24.261,19.747,13.567-.386.362-4.562,4.973-5.335,6.952,3.935.917-.869L610.1,259.557l-6.373-.386-8.474-10.887,1.69-8.015,2.583-.338.893-3.549L588.879,224.24l-13.229,1.907Z" transform="translate(783.786 316.309)"/>
      <path id="jordan" d="M552.534,243.976,546.6,264.688l-.266,3.162h9.342l10.453-9.222.266-3.5-4.273-4.369,7.652-6.349-1.111-5.89-2.1.483-6.373,4.563-7.652.41Z" transform="translate(769.702 336.502)"/>
      <path id="lebanon" d="M547.275,232.44l.145,4.707-1.979,7.146,6.808.579.435-10.139-5.407-2.293Z" transform="translate(768.443 327.904)"/>
      <path id="israel" d="M547.554,238.06,543.74,250.2l4.949,14.557,5.673-21.268v-4.563l-6.807-.869Z" transform="translate(766.04 335.851)"/>
      <path id="cyprus" d="M551.341,229.84l2.969,2.148-9.2,8.715-4.394-.145-3.259-2.293.435-4.273,6.663-.435,6.784-3.718Z" transform="translate(757.16 324.228)"/>
      <path id="norway" d="M586.784,113.891l4.876-3.573-.435-4.007-3.09-1.786.434-4.9h2.655v-2.68L579.71,93.83l-17.26,1.786-1.762,7.58-3.983-1.328L554.05,97.4l-8.425.435-.893,8.473-3.983,1.786-2.221-4.466L520.808,117.9l3.549,4.007-6.639,3.114L502.655,154.9l-5.311,3.573.434,2.68,5.311,2.68-1.328,5.794-8.859-.459-2.655-3.114-5.745,6.687-3.549,2.68-.893,6.252-3.09,1.786L469,185.249l-3.983,12.5,2.655,20.519,3.09,9.366,3.549,3.573,7.966-.435L493.8,219.625l4.418-7.58,1.328,11.153,7.532-13.374.435-37.49,6.132-3.862,1.835-20.688,18.588-26.772,8.86-3.114L546.9,113l13.277,3.114,6.639,4.007,2.221-11.153,11.08-6.687,6.663,11.611Z" transform="translate(654.727 131.906)"/>
      <path id="britain" d="M458.337,150.89l-4.418,6.687,1.762,2.68h10.187v4.466l-2.655,3.573,1.762,9.366,5.745,11.153,4.418,10.26,7.073,2.68,3.09,5.359-.434,4.9-4.418,2.68-.435,2.221,3.09,1.786-2.655,3.573-6.2,2.68L462.3,223.625,443.684,232.1l-6.2-3.114,17.719-10.26-2.221-1.328-9.294-.893,5.745-8.473.893-7.146,7.532-.893-1.328-13.832-8.859-.435-2.655-3.114.434-10.26-5.311.435,5.311-17.84L455.2,147.8l3.138,3.09Z" transform="translate(615.785 208.221)"/>
      <path id="ulster" d="M443.341,161.47l-7.966.893-.435,7.146,5.311,3.573L446,171.754l2.221-4.007-4.877-6.276Z" transform="translate(612.193 227.551)"/>
      <path id="ireland" d="M458.43,173.578l-2.2,14.484-19.481,7.146h-6.2l-4.418-3.114v-2.68l9.753-6.252-2.655-5.359.435-7.58,8.425.434,3.862-9.077-.507,8.063,6.542,5.19,6.446-1.255Z" transform="translate(599.736 227.706)"/>
      <path id="sweden" d="M523.5,104.58l4.731,4.369h8.86l4.876,9.366,1.328,16.053-11.949,8.473v8.473l-8.425,11.611-4.876.434L511.4,174.514l.434,10.718,11.515,8.473-.893,4.9-4.418,6.687-6.638,5.794.434,19.192-10.187,3.573-3.549,7.58h-4.876l-2.655-13.374L479.49,211.063l9.1-15.233.628-37.635,6.277-3.452,1.521-21.533L514.9,107.6l8.594-3.017Z" transform="translate(675.188 147.107)"/>
      <path id="finland" d="M518.767,143.184l5,2.2,3.09,5.794-3.09,4.007-15.5,16.946-2.655,8.932L509.159,194l11.949,8.932,15.933-7.58,12.843-1.786,11.949-19.192L552.974,153.4l-8.425-20.085,1.328-12.939-5.311-.893-1.376-9.439-7.146-11.66-7.918,5.48-3.114,12.722-8.4-5.045-11.684-2.849-2.607,3.042,4.49,4.056,8.184-.145,6.59,10.646,1.183,16.9Z" transform="translate(701.814 138.34)"/>
      <path id="path302" d="M527.756,152.94l-16.536-2.68.362,9.246,15.329,9.366,6.276-1.835-.362-7.049-5.069-7.049Z" transform="translate(720.055 211.699)"/>
      <path id="hiumaa" d="M510.224,147.711l-3.742-.121-2.173,2.2,1.569,2.317,3.742.241,1.931-2.8-1.328-1.835Z" transform="translate(710.284 207.924)"/>
      <path id="saaremaa" d="M512.549,151.932l-3.621-.362-6.518,7.8v3.645l2.173.845,4.225.121,7-5.721.966-1.955-4.224-4.369Z" transform="translate(707.598 213.552)"/>
      <path id="lithuania" d="M523.466,154.771l-5.19-.121-7.121,6.808h-6.035l.362,8.521-3.621,6.687,13.036.121,3.742-.483,3.742,4.514,8.57-.362L539.157,170l-.483-6.2-15.208-9.029Z" transform="translate(706.82 217.907)"/>
      <path id="belarus" d="M510.66,178.168l3.621,5.963-1.449,4.756.242,3.766,1.328,4.514,7.483-4.249,9.294.241,6.518,2.68h16.536l4.828-11.563,2.9-4.369v-2.921l-10.38-14.6-9.173-3.645-7.483-.845-6.518,2.076.241,6.566-9.053,11.443-8.932.193Z" transform="translate(719.263 222.489)"/>
      <path id="poland" d="M543.064,192.082l2.052,3.766.483,4.007-1.69,3.887-3.863,7.435-3.259,1.473-4.224-1.835-2.535.121-6.156,2.317-7-2.076-11.346-8.039-11.1-5.963-4.466-6.808-.845-16.053,8.691-7.556,11.346-3.766,4.225-.483-1.69,3.4,1.086,1.328,19.095.362,4.1-.121,6.759,10.356-1.69,4.249.724,5,1.3,5Z" transform="translate(688.791 229.021)"/>
      <path id="spain" d="M473.883,206.64H443.128l-6.2-2.8-2.993.217-3.621,7.532,1.279,7.749,11.756,1.086,1.5,4.949-5.118,28.848.217,5.166,8.328,4.514,9.608.652,19.216-4.732,9.391-11.829.217-12.046,16.657-15.064.845-6.663L489.043,214l-15.16-7.363Z" transform="translate(605.646 287.463)"/>
      <path id="portugal" d="M434.31,211.24l-1.5,20.881-4.273,3.862.435,2.366,2.993,4.949-1.931,6.035,3.211,1.086,7.484-.869-.435-6.035,4.9-27.979-1.062-3.862-9.825-.435Z" transform="translate(603.144 297.927)"/>
      <path id="majorca" d="M463.348,217.21l-3.838,1.3.845,3.452h5.552l2.342-2.583-4.9-2.173Z" transform="translate(646.936 306.369)"/>
      <path id="sardinia" d="M481.307,213.38l-6.4,3.235.845,12.481,5.118.869,3.838-3.669V214.466l-3.4-1.086Z" transform="translate(668.712 300.953)"/>
      <path id="corsica" d="M480.842,206.96l-4.708,4.731-.434,4.3,3.838,2.366,1.5-.217.845-6.252-1.038-4.925Z" transform="translate(669.829 291.875)"/>
      <path id="france" d="M486.164,178.7l-5.335,1.3-10.67,11.611-3.211.217-4.273-3.018-2.776.652-2.125,6.663-15.595.435.435,3.452,10.67,7.1,12.384,9.9-.217,11.829-6.614,11.611,14.315,6.88,14.532.435,4.49-5.166,9.173.217,2.559,2.366,9.173-.652,4.707-6.035-5.987-7.1-.434-4.514,1.279-4.949-2.993-4.3-5.118,1.5-.652-3.862L515.2,202.792V195.26l-7.484-4.3-3.838-.652L486.164,178.7Z" transform="translate(622.431 251.914)"/>
      <path id="netherlands" d="M481.431,168.27l-10.936,5.383,2.317,2.1.241,5.383-2.317-.459-2.559-3.983-6.108,9.68,9.391,1.955,3.5,3.693,1.859.048,1.231-8.353,5.914-2.486-2.535-12.963Z" transform="translate(650.556 237.166)"/>
      <path id="belgium" d="M462.515,176.52l-1.545,3.862,16.608,10.96,4.78,1.135.169-5.19-4.176-4.683h-2.559l-3.5-3.983-9.777-2.1Z" transform="translate(649 248.832)"/>
      <path id="germany" d="M474.138,172.956l8.618-1.4v-6.083l7.218-1.183,3.959,3.983,4.176.459,6.518-2.824,5.818,1.642,5.118,4.442.7,16.633,5.118,6.807-6.735.942L503.468,203.4l.941,2.342,9.994,9.366-.7,4.683-9.294,4.683-8.618.241-2.1,4.442h-4.418l-2.1-4.683-7.677-1.883-.241-7.725-6.518-4.442.7-5.625-4.418-6.083,1.159-7.966,6.035-2.824-2.076-14.967Z" transform="translate(660.384 231.538)"/>
      <path id="denmark" d="M482.85,151.5l-10.018,11.08-.362,7.218,4.563,11.9,7.146-1.352-.893-9.729,4.925-5.5-.1-4.321-3.476-9-1.786-.29Z" transform="translate(665.262 213.453)"/>
      <path id="sjlland" d="M484.48,159.7l-2.245-.1-2.945,2.7.362,4.225,6.977.193.362-4.78L484.48,159.7Z" transform="translate(674.905 224.907)"/>
      <path id="gotland" d="M501.474,150.17,496.38,154.2l2.559,5.914,4.514-4.394-1.98-5.552Z" transform="translate(699.071 211.572)"/>
      <path id="switzerland" d="M479.075,189.38l-10.525,11.2.217,1.135,4.321-1.352,3.887,5.407,6.566-2.317,4.538,3.525,1.859-1.062,5.6-8.787-1.424-1.352-5.528-.145-2.68-5.48-6.832-.772Z" transform="translate(659.719 267.016)"/>
      <path id="czech" d="M494.228,194.825h10.694l5.721,4.08,10.6-8.811-10.284-7.339L500.77,177.83l-6.977,1.255-9.463,6.083,9.9,9.656Z" transform="translate(682.032 250.684)"/>
      <path id="slovakia" d="M495.84,192.517l1.666,1.473.217,2.511,18.419-.41,13.615-5.866-.217-5.963-2.607,1.159-3.742-2-2.293-.1-6.035,2.414-8.208-1.98-10.815,8.763Z" transform="translate(698.308 258.447)"/>
      <path id="austria" d="M481.549,196.526l-1.569,3.259,1.352,2.317,5.625-1.159h4.78l5.19,4.394,11.032-2,8.111-4.828,2.076-3.259-.314-4.2-7.29-5.456-9.777.1-.821,5.552L489.66,196.26l-8.111.266Z" transform="translate(675.881 261.657)"/>
      <path id="hungary" d="M498.38,193.658l-2.8,4.394.217,6.711,4.466,2.293,13.736.41,19.143-16.126.1-3.573-2.076-1.038-13.833,6.276-18.95.652Z" transform="translate(697.94 263.269)"/>
      <path id="slovenia" d="M505.094,191.99l-6.132,3.669L487.52,198.17l2.293,6.614,8.015.1,7.387-6.18-.121-6.711Z" transform="translate(686.543 270.707)"/>
      <path id="croatia" d="M506.282,195.16l-8.522,7.025h-8.642l-1.038,6.083,3.959,1.038,1.98-2.945,3.114,2.728,2.486,8.69,17.067,7.966,1.69-1.931-17.308-17.864,1.762-3.259,16.44-.628,1.666-5.238-10.719.314-3.935-1.98Z" transform="translate(687.335 275.189)"/>
      <path id="bosnia" d="M495.323,199.124l-.893,1.473,16.2,16.705,5.939-8.739-.217-3.452-5.19-6.3-15.836.314Z" transform="translate(696.314 280.351)"/>
      <path id="italy" d="M473.147,203.117l-1.5,3.79.41,4.128,5.77,6.735,9.077-.314,20.036,23.271,12.5,3.621,7.387,6.977,1.762,15.908,3.959-2.318,3.428-8.666-.845-6.228,5.866-.531.845-3.525-16.536-7.918-15.691-15.426-6.252-9.222-1.521-8.763,7.991-1.907-2.052-5.77-4.9-4.128-4.225-.193-5.89,1.617-5.552,7.773-3.355,2.221-5.19-3.187-5.528,2.052Z" transform="translate(664.102 271.626)"/>
      <path id="sicily" d="M501.49,224.123l-3.5-1.883-11.949,1.883.411,3.235,10.742,5.407,1.617,1.762,2.824.41-.145-10.815Z" transform="translate(684.45 313.481)"/>
      <path id="malta" d="M494.971,230.47l-4.031.821.145,4.466,3.621,1.207,1.617-1.352-1.352-5.142Z" transform="translate(691.379 325.119)"/>
      <path id="ukraine" d="M522.442,177.491l-7,3.935,1.738,7.435L510.71,202.5l.048,6.011,3.042,1.931,19.505.966,5.456-4.514,5.842,1.955,8.377,11.177-6.132,11.008,7.29,2.124,9.535-10.984,5.456.99,5.069,3.525-4.466,5.89,6.035,9.415h6.421l3.307-6.276,6.808-1.376.193-5.094-12.65-1.955.386-5.48H592.5l13.229-10.6,5.842-5.094.966-16.077L586.462,187.7l-10.694-15.088-7.387-2.535-8.956.386-4.031,9.97-18.347.241-5.963-2.752-8.642-.435Z" transform="translate(719.334 239.726)"/>
      <path id="moldova" d="M520.75,189.958l7.483,11.515-.628,6.518,2.68.121,6.349-10.742-7.628-9.463-4.321-1.786-3.935,3.838Z" transform="translate(733.531 262.407)"/>
      <path id="romania" d="M520.735,187.6l-.628,3.573L506.13,202.808l11.684,17.14,7.483,5.238h13.47l4.442-3.718,5.963-.773,4.442,2.68,7.87-8.956-1.521-4.49-7.99-2.052-5.456-.266.266-7.677-7.242-11.394-18.805-.941Z" transform="translate(712.858 264.499)"/>
      <path id="montenegro" d="M509.854,211.192l-.109-2.257-3.187-4.476-5.159,7.293,1.014,3.066,4.2.772Z" transform="translate(706.17 288.338)"/>
      <path id="serbia" d="M510.827,194.539l-4.951,3.72h-2.414l-1.642,5.115,5.842,6.786.386,5.383-.823,1.166,3.949,5.547.138,2.943,2.844,2.754,9.27-2.824-.775-13.183Z" transform="translate(706.764 274.311)"/>
      <path id="bulgaria" d="M511.44,202.6l.386,12.022,4.056,8.449,15.233.266,6.856-4.852,6.735-2.68-1.641-7.677,1.521-4.1-3.428-1.786-4.708.386-3.693,3.718-15.5.121L511.44,202.6Z" transform="translate(720.367 285.201)"/>
      <path id="albania" d="M504.02,212.263v11.129l3.186,6.011,2.293-.266,3.935-7.17-2.293-3.211-.893-7.942-3.042-2.824-3.186,4.273Z" transform="translate(709.874 293.331)"/>
      <path id="macedonia" d="M515.686,208.01l-8.136,2.68.386,6.9,1.907,2.438,9.656-4.49-3.814-7.532Z" transform="translate(714.866 293.36)"/>
      <path id="greece" d="M506.866,228.106l-.265,3.211,11.177,5.625,5.335,2.052-2.8,2.945-6.228.628-.893,2.824,2.149,4.852,6.977,3.718,3.042.265.386-8.328,4.563-5.5L517.85,225.668l1.641-5,2.921-.121,4.442,3.573,2.8-1.4.893-5,13.084.121.507-7.677-5.456,3.838-16.005-.386-10.4,5.383-5.407,9.1Z" transform="translate(713.523 296.414)"/>
      <path id="thrace" d="M523.246,211.2l-.386,8.57,7.483-2.293,3.428-2.293-1.014-3.718-3.549-2.824-5.963,2.559Z" transform="translate(736.515 294.25)"/>
      <path id="crete" d="M517.637,230.59l3.935.121,1.641,2.438h5.721l3.814-1.4,1.28,1.545-2.535,3.331-11.177.386-2.028-2.68-2.149-1.279,1.5-2.462Z" transform="translate(727.013 325.288)"/>
    </g>
  </g>
</svg>
